<mxfile host="app.diagrams.net" modified="2024-04-30T11:37:29.921Z" agent="Mozilla/5.0 (X11; Linux x86_64; rv:123.0) Gecko/20100101 Firefox/123.0" etag="-I3VnYwucBxgnXIUVVgA" version="24.3.1" type="device" pages="2">
  <diagram id="C5RBs43oDa-KdzZeNtuy" name="BusinessLogic">
    <mxGraphModel dx="954" dy="579" grid="1" gridSize="10" guides="1" tooltips="1" connect="1" arrows="1" fold="1" page="1" pageScale="1" pageWidth="1169" pageHeight="827" math="0" shadow="0">
      <root>
        <mxCell id="WIyWlLk6GJQsqaUBKTNV-0" />
        <mxCell id="WIyWlLk6GJQsqaUBKTNV-1" parent="WIyWlLk6GJQsqaUBKTNV-0" />
        <mxCell id="pIh0lLr5aVEuWvQ1CZ18-2" style="edgeStyle=orthogonalEdgeStyle;rounded=0;orthogonalLoop=1;jettySize=auto;html=1;exitX=0.5;exitY=0;exitDx=0;exitDy=0;entryX=0.5;entryY=1;entryDx=0;entryDy=0;dashed=1;strokeColor=default;align=center;verticalAlign=middle;fontFamily=Helvetica;fontSize=11;fontColor=default;labelBackgroundColor=default;endArrow=block;endFill=0;" parent="WIyWlLk6GJQsqaUBKTNV-1" source="zkfFHV4jXpPFQw0GAbJ--6" target="hDQLbbaS15JgVn0vshfj-0" edge="1">
          <mxGeometry relative="1" as="geometry" />
        </mxCell>
        <mxCell id="aVG776f1OYNpe_4Xu9b4-21" style="edgeStyle=orthogonalEdgeStyle;rounded=0;orthogonalLoop=1;jettySize=auto;html=1;exitX=0.5;exitY=1;exitDx=0;exitDy=0;dashed=1;strokeColor=default;align=center;verticalAlign=middle;fontFamily=Helvetica;fontSize=11;fontColor=default;labelBackgroundColor=default;endArrow=open;endFill=0;" parent="WIyWlLk6GJQsqaUBKTNV-1" source="zkfFHV4jXpPFQw0GAbJ--6" target="51ml1QiSwezSpFaQSZXs-0" edge="1">
          <mxGeometry relative="1" as="geometry" />
        </mxCell>
        <mxCell id="zkfFHV4jXpPFQw0GAbJ--6" value="ProductService" style="swimlane;fontStyle=1;align=center;verticalAlign=top;childLayout=stackLayout;horizontal=1;startSize=26;horizontalStack=0;resizeParent=1;resizeLast=0;collapsible=1;marginBottom=0;rounded=0;shadow=0;strokeWidth=1;" parent="WIyWlLk6GJQsqaUBKTNV-1" vertex="1">
          <mxGeometry x="110" y="262.25" width="160" height="140" as="geometry">
            <mxRectangle x="130" y="380" width="160" height="26" as="alternateBounds" />
          </mxGeometry>
        </mxCell>
        <mxCell id="zkfFHV4jXpPFQw0GAbJ--9" value="" style="line;html=1;strokeWidth=1;align=left;verticalAlign=middle;spacingTop=-1;spacingLeft=3;spacingRight=3;rotatable=0;labelPosition=right;points=[];portConstraint=eastwest;" parent="zkfFHV4jXpPFQw0GAbJ--6" vertex="1">
          <mxGeometry y="26" width="160" height="8" as="geometry" />
        </mxCell>
        <mxCell id="aVG776f1OYNpe_4Xu9b4-2" value="+ Update()" style="text;align=left;verticalAlign=top;spacingLeft=4;spacingRight=4;overflow=hidden;rotatable=0;points=[[0,0.5],[1,0.5]];portConstraint=eastwest;fontStyle=4" parent="zkfFHV4jXpPFQw0GAbJ--6" vertex="1">
          <mxGeometry y="34" width="160" height="26" as="geometry" />
        </mxCell>
        <mxCell id="aVG776f1OYNpe_4Xu9b4-1" value="+ Create()" style="text;align=left;verticalAlign=top;spacingLeft=4;spacingRight=4;overflow=hidden;rotatable=0;points=[[0,0.5],[1,0.5]];portConstraint=eastwest;fontStyle=4" parent="zkfFHV4jXpPFQw0GAbJ--6" vertex="1">
          <mxGeometry y="60" width="160" height="26" as="geometry" />
        </mxCell>
        <mxCell id="zkfFHV4jXpPFQw0GAbJ--10" value="+ ListProducts()" style="text;align=left;verticalAlign=top;spacingLeft=4;spacingRight=4;overflow=hidden;rotatable=0;points=[[0,0.5],[1,0.5]];portConstraint=eastwest;fontStyle=4" parent="zkfFHV4jXpPFQw0GAbJ--6" vertex="1">
          <mxGeometry y="86" width="160" height="26" as="geometry" />
        </mxCell>
        <mxCell id="aVG776f1OYNpe_4Xu9b4-0" value="+ GetProductByID()" style="text;align=left;verticalAlign=top;spacingLeft=4;spacingRight=4;overflow=hidden;rotatable=0;points=[[0,0.5],[1,0.5]];portConstraint=eastwest;fontStyle=4" parent="zkfFHV4jXpPFQw0GAbJ--6" vertex="1">
          <mxGeometry y="112" width="160" height="26" as="geometry" />
        </mxCell>
        <mxCell id="hDQLbbaS15JgVn0vshfj-22" style="edgeStyle=orthogonalEdgeStyle;rounded=0;orthogonalLoop=1;jettySize=auto;html=1;exitX=0.5;exitY=0;exitDx=0;exitDy=0;entryX=0.5;entryY=1;entryDx=0;entryDy=0;dashed=1;strokeColor=default;align=center;verticalAlign=middle;fontFamily=Helvetica;fontSize=11;fontColor=default;labelBackgroundColor=default;endArrow=block;endFill=0;" parent="WIyWlLk6GJQsqaUBKTNV-1" source="7nJVIRlUvlbPXpXhSvH8-0" target="hDQLbbaS15JgVn0vshfj-4" edge="1">
          <mxGeometry relative="1" as="geometry" />
        </mxCell>
        <mxCell id="pIh0lLr5aVEuWvQ1CZ18-3" style="edgeStyle=orthogonalEdgeStyle;rounded=0;orthogonalLoop=1;jettySize=auto;html=1;exitX=0.5;exitY=1;exitDx=0;exitDy=0;dashed=1;strokeColor=default;align=center;verticalAlign=middle;fontFamily=Helvetica;fontSize=11;fontColor=default;labelBackgroundColor=default;endArrow=open;endFill=0;" parent="WIyWlLk6GJQsqaUBKTNV-1" source="7nJVIRlUvlbPXpXhSvH8-0" target="51ml1QiSwezSpFaQSZXs-4" edge="1">
          <mxGeometry relative="1" as="geometry" />
        </mxCell>
        <mxCell id="7nJVIRlUvlbPXpXhSvH8-0" value="UserService" style="swimlane;fontStyle=1;align=center;verticalAlign=top;childLayout=stackLayout;horizontal=1;startSize=26;horizontalStack=0;resizeParent=1;resizeLast=0;collapsible=1;marginBottom=0;rounded=0;shadow=0;strokeWidth=1;" parent="WIyWlLk6GJQsqaUBKTNV-1" vertex="1">
          <mxGeometry x="830" y="262.25" width="160" height="112" as="geometry">
            <mxRectangle x="130" y="380" width="160" height="26" as="alternateBounds" />
          </mxGeometry>
        </mxCell>
        <mxCell id="7nJVIRlUvlbPXpXhSvH8-2" value="" style="line;html=1;strokeWidth=1;align=left;verticalAlign=middle;spacingTop=-1;spacingLeft=3;spacingRight=3;rotatable=0;labelPosition=right;points=[];portConstraint=eastwest;" parent="7nJVIRlUvlbPXpXhSvH8-0" vertex="1">
          <mxGeometry y="26" width="160" height="8" as="geometry" />
        </mxCell>
        <mxCell id="lOFDa43hv-GlPolKp7jc-3" value="+ Login()" style="text;align=left;verticalAlign=top;spacingLeft=4;spacingRight=4;overflow=hidden;rotatable=0;points=[[0,0.5],[1,0.5]];portConstraint=eastwest;fontStyle=4" parent="7nJVIRlUvlbPXpXhSvH8-0" vertex="1">
          <mxGeometry y="34" width="160" height="26" as="geometry" />
        </mxCell>
        <mxCell id="lOFDa43hv-GlPolKp7jc-4" value="+ Register()" style="text;align=left;verticalAlign=top;spacingLeft=4;spacingRight=4;overflow=hidden;rotatable=0;points=[[0,0.5],[1,0.5]];portConstraint=eastwest;fontStyle=4" parent="7nJVIRlUvlbPXpXhSvH8-0" vertex="1">
          <mxGeometry y="60" width="160" height="26" as="geometry" />
        </mxCell>
        <mxCell id="lOFDa43hv-GlPolKp7jc-5" value="+ GetUserByID()" style="text;align=left;verticalAlign=top;spacingLeft=4;spacingRight=4;overflow=hidden;rotatable=0;points=[[0,0.5],[1,0.5]];portConstraint=eastwest;fontStyle=4" parent="7nJVIRlUvlbPXpXhSvH8-0" vertex="1">
          <mxGeometry y="86" width="160" height="26" as="geometry" />
        </mxCell>
        <mxCell id="pIh0lLr5aVEuWvQ1CZ18-1" style="edgeStyle=orthogonalEdgeStyle;rounded=0;orthogonalLoop=1;jettySize=auto;html=1;exitX=0.5;exitY=0;exitDx=0;exitDy=0;entryX=0.5;entryY=1;entryDx=0;entryDy=0;dashed=1;strokeColor=default;align=center;verticalAlign=middle;fontFamily=Helvetica;fontSize=11;fontColor=default;labelBackgroundColor=default;endArrow=block;endFill=0;" parent="WIyWlLk6GJQsqaUBKTNV-1" source="7nJVIRlUvlbPXpXhSvH8-4" target="hDQLbbaS15JgVn0vshfj-8" edge="1">
          <mxGeometry relative="1" as="geometry" />
        </mxCell>
        <mxCell id="Ep5r2rhVwT2xJlZeftbU-0" style="edgeStyle=orthogonalEdgeStyle;rounded=0;orthogonalLoop=1;jettySize=auto;html=1;exitX=0.5;exitY=1;exitDx=0;exitDy=0;dashed=1;strokeColor=default;align=center;verticalAlign=middle;fontFamily=Helvetica;fontSize=11;fontColor=default;labelBackgroundColor=default;endArrow=open;endFill=0;" parent="WIyWlLk6GJQsqaUBKTNV-1" source="7nJVIRlUvlbPXpXhSvH8-4" target="51ml1QiSwezSpFaQSZXs-8" edge="1">
          <mxGeometry relative="1" as="geometry" />
        </mxCell>
        <mxCell id="7nJVIRlUvlbPXpXhSvH8-4" value="CartService" style="swimlane;fontStyle=1;align=center;verticalAlign=top;childLayout=stackLayout;horizontal=1;startSize=26;horizontalStack=0;resizeParent=1;resizeLast=0;collapsible=1;marginBottom=0;rounded=0;shadow=0;strokeWidth=1;" parent="WIyWlLk6GJQsqaUBKTNV-1" vertex="1">
          <mxGeometry x="350" y="262.25" width="160" height="112" as="geometry">
            <mxRectangle x="130" y="380" width="160" height="26" as="alternateBounds" />
          </mxGeometry>
        </mxCell>
        <mxCell id="7nJVIRlUvlbPXpXhSvH8-6" value="" style="line;html=1;strokeWidth=1;align=left;verticalAlign=middle;spacingTop=-1;spacingLeft=3;spacingRight=3;rotatable=0;labelPosition=right;points=[];portConstraint=eastwest;" parent="7nJVIRlUvlbPXpXhSvH8-4" vertex="1">
          <mxGeometry y="26" width="160" height="8" as="geometry" />
        </mxCell>
        <mxCell id="Ep5r2rhVwT2xJlZeftbU-1" value="+ AddProduct()" style="text;align=left;verticalAlign=top;spacingLeft=4;spacingRight=4;overflow=hidden;rotatable=0;points=[[0,0.5],[1,0.5]];portConstraint=eastwest;fontStyle=4" parent="7nJVIRlUvlbPXpXhSvH8-4" vertex="1">
          <mxGeometry y="34" width="160" height="26" as="geometry" />
        </mxCell>
        <mxCell id="Ep5r2rhVwT2xJlZeftbU-2" value="+ RemoveProduct()" style="text;align=left;verticalAlign=top;spacingLeft=4;spacingRight=4;overflow=hidden;rotatable=0;points=[[0,0.5],[1,0.5]];portConstraint=eastwest;fontStyle=4" parent="7nJVIRlUvlbPXpXhSvH8-4" vertex="1">
          <mxGeometry y="60" width="160" height="26" as="geometry" />
        </mxCell>
        <mxCell id="Ep5r2rhVwT2xJlZeftbU-3" value="+ GetCartByUserID()" style="text;align=left;verticalAlign=top;spacingLeft=4;spacingRight=4;overflow=hidden;rotatable=0;points=[[0,0.5],[1,0.5]];portConstraint=eastwest;fontStyle=4" parent="7nJVIRlUvlbPXpXhSvH8-4" vertex="1">
          <mxGeometry y="86" width="160" height="26" as="geometry" />
        </mxCell>
        <mxCell id="pIh0lLr5aVEuWvQ1CZ18-0" style="edgeStyle=orthogonalEdgeStyle;rounded=0;orthogonalLoop=1;jettySize=auto;html=1;exitX=0.5;exitY=0;exitDx=0;exitDy=0;entryX=0.5;entryY=1;entryDx=0;entryDy=0;dashed=1;strokeColor=default;align=center;verticalAlign=middle;fontFamily=Helvetica;fontSize=11;fontColor=default;labelBackgroundColor=default;endArrow=block;endFill=0;" parent="WIyWlLk6GJQsqaUBKTNV-1" source="7nJVIRlUvlbPXpXhSvH8-8" target="hDQLbbaS15JgVn0vshfj-12" edge="1">
          <mxGeometry relative="1" as="geometry" />
        </mxCell>
        <mxCell id="bxhZn-yvbYv5LsNtYdoc-3" style="edgeStyle=orthogonalEdgeStyle;rounded=0;orthogonalLoop=1;jettySize=auto;html=1;exitX=0.5;exitY=1;exitDx=0;exitDy=0;entryX=0.5;entryY=0;entryDx=0;entryDy=0;dashed=1;strokeColor=default;align=center;verticalAlign=middle;fontFamily=Helvetica;fontSize=11;fontColor=default;labelBackgroundColor=default;endArrow=open;endFill=0;" parent="WIyWlLk6GJQsqaUBKTNV-1" source="7nJVIRlUvlbPXpXhSvH8-8" target="51ml1QiSwezSpFaQSZXs-12" edge="1">
          <mxGeometry relative="1" as="geometry" />
        </mxCell>
        <mxCell id="bxhZn-yvbYv5LsNtYdoc-4" style="edgeStyle=orthogonalEdgeStyle;rounded=0;orthogonalLoop=1;jettySize=auto;html=1;exitX=0.5;exitY=1;exitDx=0;exitDy=0;entryX=0.5;entryY=0;entryDx=0;entryDy=0;dashed=1;strokeColor=default;align=center;verticalAlign=middle;fontFamily=Helvetica;fontSize=11;fontColor=default;labelBackgroundColor=default;endArrow=open;endFill=0;" parent="WIyWlLk6GJQsqaUBKTNV-1" source="7nJVIRlUvlbPXpXhSvH8-8" target="51ml1QiSwezSpFaQSZXs-0" edge="1">
          <mxGeometry relative="1" as="geometry" />
        </mxCell>
        <mxCell id="7nJVIRlUvlbPXpXhSvH8-8" value="OrderService" style="swimlane;fontStyle=1;align=center;verticalAlign=top;childLayout=stackLayout;horizontal=1;startSize=26;horizontalStack=0;resizeParent=1;resizeLast=0;collapsible=1;marginBottom=0;rounded=0;shadow=0;strokeWidth=1;" parent="WIyWlLk6GJQsqaUBKTNV-1" vertex="1">
          <mxGeometry x="590" y="262.25" width="160" height="150" as="geometry">
            <mxRectangle x="130" y="380" width="160" height="26" as="alternateBounds" />
          </mxGeometry>
        </mxCell>
        <mxCell id="7nJVIRlUvlbPXpXhSvH8-10" value="" style="line;html=1;strokeWidth=1;align=left;verticalAlign=middle;spacingTop=-1;spacingLeft=3;spacingRight=3;rotatable=0;labelPosition=right;points=[];portConstraint=eastwest;" parent="7nJVIRlUvlbPXpXhSvH8-8" vertex="1">
          <mxGeometry y="26" width="160" height="8" as="geometry" />
        </mxCell>
        <mxCell id="bxhZn-yvbYv5LsNtYdoc-5" value="+ PlaceOrder()" style="text;align=left;verticalAlign=top;spacingLeft=4;spacingRight=4;overflow=hidden;rotatable=0;points=[[0,0.5],[1,0.5]];portConstraint=eastwest;fontStyle=4" parent="7nJVIRlUvlbPXpXhSvH8-8" vertex="1">
          <mxGeometry y="34" width="160" height="26" as="geometry" />
        </mxCell>
        <mxCell id="bxhZn-yvbYv5LsNtYdoc-6" value="+ GetOrderByID()" style="text;align=left;verticalAlign=top;spacingLeft=4;spacingRight=4;overflow=hidden;rotatable=0;points=[[0,0.5],[1,0.5]];portConstraint=eastwest;fontStyle=4" parent="7nJVIRlUvlbPXpXhSvH8-8" vertex="1">
          <mxGeometry y="60" width="160" height="26" as="geometry" />
        </mxCell>
        <mxCell id="bxhZn-yvbYv5LsNtYdoc-7" value="+ GetMyOrders()" style="text;align=left;verticalAlign=top;spacingLeft=4;spacingRight=4;overflow=hidden;rotatable=0;points=[[0,0.5],[1,0.5]];portConstraint=eastwest;fontStyle=4" parent="7nJVIRlUvlbPXpXhSvH8-8" vertex="1">
          <mxGeometry y="86" width="160" height="26" as="geometry" />
        </mxCell>
        <mxCell id="bxhZn-yvbYv5LsNtYdoc-8" value="+ CancelOrder()" style="text;align=left;verticalAlign=top;spacingLeft=4;spacingRight=4;overflow=hidden;rotatable=0;points=[[0,0.5],[1,0.5]];portConstraint=eastwest;fontStyle=4" parent="7nJVIRlUvlbPXpXhSvH8-8" vertex="1">
          <mxGeometry y="112" width="160" height="26" as="geometry" />
        </mxCell>
        <mxCell id="51ml1QiSwezSpFaQSZXs-0" value="IProductRepository" style="swimlane;fontStyle=1;align=center;verticalAlign=top;childLayout=stackLayout;horizontal=1;startSize=26;horizontalStack=0;resizeParent=1;resizeLast=0;collapsible=1;marginBottom=0;rounded=0;shadow=0;strokeWidth=1;" parent="WIyWlLk6GJQsqaUBKTNV-1" vertex="1">
          <mxGeometry x="110" y="502.25" width="160" height="138" as="geometry">
            <mxRectangle x="130" y="380" width="160" height="26" as="alternateBounds" />
          </mxGeometry>
        </mxCell>
        <mxCell id="51ml1QiSwezSpFaQSZXs-2" value="" style="line;html=1;strokeWidth=1;align=left;verticalAlign=middle;spacingTop=-1;spacingLeft=3;spacingRight=3;rotatable=0;labelPosition=right;points=[];portConstraint=eastwest;" parent="51ml1QiSwezSpFaQSZXs-0" vertex="1">
          <mxGeometry y="26" width="160" height="8" as="geometry" />
        </mxCell>
        <mxCell id="aVG776f1OYNpe_4Xu9b4-19" value="+ Update()" style="text;align=left;verticalAlign=top;spacingLeft=4;spacingRight=4;overflow=hidden;rotatable=0;points=[[0,0.5],[1,0.5]];portConstraint=eastwest;fontStyle=4" parent="51ml1QiSwezSpFaQSZXs-0" vertex="1">
          <mxGeometry y="34" width="160" height="26" as="geometry" />
        </mxCell>
        <mxCell id="aVG776f1OYNpe_4Xu9b4-18" value="+ Create()" style="text;align=left;verticalAlign=top;spacingLeft=4;spacingRight=4;overflow=hidden;rotatable=0;points=[[0,0.5],[1,0.5]];portConstraint=eastwest;fontStyle=4" parent="51ml1QiSwezSpFaQSZXs-0" vertex="1">
          <mxGeometry y="60" width="160" height="26" as="geometry" />
        </mxCell>
        <mxCell id="aVG776f1OYNpe_4Xu9b4-16" value="+ ListProducts()" style="text;align=left;verticalAlign=top;spacingLeft=4;spacingRight=4;overflow=hidden;rotatable=0;points=[[0,0.5],[1,0.5]];portConstraint=eastwest;fontStyle=4" parent="51ml1QiSwezSpFaQSZXs-0" vertex="1">
          <mxGeometry y="86" width="160" height="26" as="geometry" />
        </mxCell>
        <mxCell id="aVG776f1OYNpe_4Xu9b4-17" value="+ GetProductByID()" style="text;align=left;verticalAlign=top;spacingLeft=4;spacingRight=4;overflow=hidden;rotatable=0;points=[[0,0.5],[1,0.5]];portConstraint=eastwest;fontStyle=4" parent="51ml1QiSwezSpFaQSZXs-0" vertex="1">
          <mxGeometry y="112" width="160" height="26" as="geometry" />
        </mxCell>
        <mxCell id="51ml1QiSwezSpFaQSZXs-4" value="IUserRepository" style="swimlane;fontStyle=1;align=center;verticalAlign=top;childLayout=stackLayout;horizontal=1;startSize=26;horizontalStack=0;resizeParent=1;resizeLast=0;collapsible=1;marginBottom=0;rounded=0;shadow=0;strokeWidth=1;" parent="WIyWlLk6GJQsqaUBKTNV-1" vertex="1">
          <mxGeometry x="830" y="502.25" width="160" height="112" as="geometry">
            <mxRectangle x="130" y="380" width="160" height="26" as="alternateBounds" />
          </mxGeometry>
        </mxCell>
        <mxCell id="51ml1QiSwezSpFaQSZXs-6" value="" style="line;html=1;strokeWidth=1;align=left;verticalAlign=middle;spacingTop=-1;spacingLeft=3;spacingRight=3;rotatable=0;labelPosition=right;points=[];portConstraint=eastwest;" parent="51ml1QiSwezSpFaQSZXs-4" vertex="1">
          <mxGeometry y="26" width="160" height="8" as="geometry" />
        </mxCell>
        <mxCell id="hDQLbbaS15JgVn0vshfj-24" value="+ Create()" style="text;align=left;verticalAlign=top;spacingLeft=4;spacingRight=4;overflow=hidden;rotatable=0;points=[[0,0.5],[1,0.5]];portConstraint=eastwest;fontStyle=4" parent="51ml1QiSwezSpFaQSZXs-4" vertex="1">
          <mxGeometry y="34" width="160" height="26" as="geometry" />
        </mxCell>
        <mxCell id="hDQLbbaS15JgVn0vshfj-25" value="+ Update()" style="text;align=left;verticalAlign=top;spacingLeft=4;spacingRight=4;overflow=hidden;rotatable=0;points=[[0,0.5],[1,0.5]];portConstraint=eastwest;fontStyle=4" parent="51ml1QiSwezSpFaQSZXs-4" vertex="1">
          <mxGeometry y="60" width="160" height="26" as="geometry" />
        </mxCell>
        <mxCell id="lOFDa43hv-GlPolKp7jc-6" value="+ GetUserByID()" style="text;align=left;verticalAlign=top;spacingLeft=4;spacingRight=4;overflow=hidden;rotatable=0;points=[[0,0.5],[1,0.5]];portConstraint=eastwest;fontStyle=4" parent="51ml1QiSwezSpFaQSZXs-4" vertex="1">
          <mxGeometry y="86" width="160" height="26" as="geometry" />
        </mxCell>
        <mxCell id="51ml1QiSwezSpFaQSZXs-8" value="ICartRepository" style="swimlane;fontStyle=1;align=center;verticalAlign=top;childLayout=stackLayout;horizontal=1;startSize=26;horizontalStack=0;resizeParent=1;resizeLast=0;collapsible=1;marginBottom=0;rounded=0;shadow=0;strokeWidth=1;" parent="WIyWlLk6GJQsqaUBKTNV-1" vertex="1">
          <mxGeometry x="350" y="502.25" width="160" height="112" as="geometry">
            <mxRectangle x="130" y="380" width="160" height="26" as="alternateBounds" />
          </mxGeometry>
        </mxCell>
        <mxCell id="51ml1QiSwezSpFaQSZXs-10" value="" style="line;html=1;strokeWidth=1;align=left;verticalAlign=middle;spacingTop=-1;spacingLeft=3;spacingRight=3;rotatable=0;labelPosition=right;points=[];portConstraint=eastwest;" parent="51ml1QiSwezSpFaQSZXs-8" vertex="1">
          <mxGeometry y="26" width="160" height="8" as="geometry" />
        </mxCell>
        <mxCell id="XEUJ_CyPRsDhsfIqvARe-2" value="+ Create()" style="text;align=left;verticalAlign=top;spacingLeft=4;spacingRight=4;overflow=hidden;rotatable=0;points=[[0,0.5],[1,0.5]];portConstraint=eastwest;fontStyle=4" parent="51ml1QiSwezSpFaQSZXs-8" vertex="1">
          <mxGeometry y="34" width="160" height="26" as="geometry" />
        </mxCell>
        <mxCell id="XEUJ_CyPRsDhsfIqvARe-3" value="+ Update()" style="text;align=left;verticalAlign=top;spacingLeft=4;spacingRight=4;overflow=hidden;rotatable=0;points=[[0,0.5],[1,0.5]];portConstraint=eastwest;fontStyle=4" parent="51ml1QiSwezSpFaQSZXs-8" vertex="1">
          <mxGeometry y="60" width="160" height="26" as="geometry" />
        </mxCell>
        <mxCell id="XEUJ_CyPRsDhsfIqvARe-4" value="+ GetCartByUserID()" style="text;align=left;verticalAlign=top;spacingLeft=4;spacingRight=4;overflow=hidden;rotatable=0;points=[[0,0.5],[1,0.5]];portConstraint=eastwest;fontStyle=4" parent="51ml1QiSwezSpFaQSZXs-8" vertex="1">
          <mxGeometry y="86" width="160" height="26" as="geometry" />
        </mxCell>
        <mxCell id="huau3pTb8r-ju4itujI7-24" style="edgeStyle=orthogonalEdgeStyle;rounded=0;orthogonalLoop=1;jettySize=auto;html=1;exitX=0.5;exitY=0;exitDx=0;exitDy=0;endArrow=none;endFill=0;startArrow=open;startFill=0;dashed=1;" parent="WIyWlLk6GJQsqaUBKTNV-1" source="51ml1QiSwezSpFaQSZXs-12" target="huau3pTb8r-ju4itujI7-0" edge="1">
          <mxGeometry relative="1" as="geometry" />
        </mxCell>
        <mxCell id="51ml1QiSwezSpFaQSZXs-12" value="IOrderRepository" style="swimlane;fontStyle=1;align=center;verticalAlign=top;childLayout=stackLayout;horizontal=1;startSize=26;horizontalStack=0;resizeParent=1;resizeLast=0;collapsible=1;marginBottom=0;rounded=0;shadow=0;strokeWidth=1;" parent="WIyWlLk6GJQsqaUBKTNV-1" vertex="1">
          <mxGeometry x="590" y="502.25" width="160" height="140" as="geometry">
            <mxRectangle x="130" y="380" width="160" height="26" as="alternateBounds" />
          </mxGeometry>
        </mxCell>
        <mxCell id="51ml1QiSwezSpFaQSZXs-14" value="" style="line;html=1;strokeWidth=1;align=left;verticalAlign=middle;spacingTop=-1;spacingLeft=3;spacingRight=3;rotatable=0;labelPosition=right;points=[];portConstraint=eastwest;" parent="51ml1QiSwezSpFaQSZXs-12" vertex="1">
          <mxGeometry y="26" width="160" height="8" as="geometry" />
        </mxCell>
        <mxCell id="51ml1QiSwezSpFaQSZXs-15" value="+ Create()" style="text;align=left;verticalAlign=top;spacingLeft=4;spacingRight=4;overflow=hidden;rotatable=0;points=[[0,0.5],[1,0.5]];portConstraint=eastwest;fontStyle=4" parent="51ml1QiSwezSpFaQSZXs-12" vertex="1">
          <mxGeometry y="34" width="160" height="26" as="geometry" />
        </mxCell>
        <mxCell id="bxhZn-yvbYv5LsNtYdoc-9" value="+ Update()" style="text;align=left;verticalAlign=top;spacingLeft=4;spacingRight=4;overflow=hidden;rotatable=0;points=[[0,0.5],[1,0.5]];portConstraint=eastwest;fontStyle=4" parent="51ml1QiSwezSpFaQSZXs-12" vertex="1">
          <mxGeometry y="60" width="160" height="26" as="geometry" />
        </mxCell>
        <mxCell id="bxhZn-yvbYv5LsNtYdoc-12" value="+ GetMyOrders()" style="text;align=left;verticalAlign=top;spacingLeft=4;spacingRight=4;overflow=hidden;rotatable=0;points=[[0,0.5],[1,0.5]];portConstraint=eastwest;fontStyle=4" parent="51ml1QiSwezSpFaQSZXs-12" vertex="1">
          <mxGeometry y="86" width="160" height="26" as="geometry" />
        </mxCell>
        <mxCell id="bxhZn-yvbYv5LsNtYdoc-11" value="+ GetOrderByID()" style="text;align=left;verticalAlign=top;spacingLeft=4;spacingRight=4;overflow=hidden;rotatable=0;points=[[0,0.5],[1,0.5]];portConstraint=eastwest;fontStyle=4" parent="51ml1QiSwezSpFaQSZXs-12" vertex="1">
          <mxGeometry y="112" width="160" height="26" as="geometry" />
        </mxCell>
        <mxCell id="hDQLbbaS15JgVn0vshfj-21" style="edgeStyle=orthogonalEdgeStyle;rounded=0;orthogonalLoop=1;jettySize=auto;html=1;exitX=0.5;exitY=0;exitDx=0;exitDy=0;entryX=0.5;entryY=1;entryDx=0;entryDy=0;dashed=1;endArrow=block;endFill=0;" parent="WIyWlLk6GJQsqaUBKTNV-1" edge="1">
          <mxGeometry relative="1" as="geometry">
            <mxPoint x="1010" y="310" as="targetPoint" />
          </mxGeometry>
        </mxCell>
        <mxCell id="hDQLbbaS15JgVn0vshfj-0" value="IProductService" style="swimlane;fontStyle=1;align=center;verticalAlign=top;childLayout=stackLayout;horizontal=1;startSize=26;horizontalStack=0;resizeParent=1;resizeLast=0;collapsible=1;marginBottom=0;rounded=0;shadow=0;strokeWidth=1;" parent="WIyWlLk6GJQsqaUBKTNV-1" vertex="1">
          <mxGeometry x="110" y="62.25" width="160" height="138" as="geometry">
            <mxRectangle x="130" y="380" width="160" height="26" as="alternateBounds" />
          </mxGeometry>
        </mxCell>
        <mxCell id="hDQLbbaS15JgVn0vshfj-2" value="" style="line;html=1;strokeWidth=1;align=left;verticalAlign=middle;spacingTop=-1;spacingLeft=3;spacingRight=3;rotatable=0;labelPosition=right;points=[];portConstraint=eastwest;" parent="hDQLbbaS15JgVn0vshfj-0" vertex="1">
          <mxGeometry y="26" width="160" height="8" as="geometry" />
        </mxCell>
        <mxCell id="aVG776f1OYNpe_4Xu9b4-6" value="+ Update()" style="text;align=left;verticalAlign=top;spacingLeft=4;spacingRight=4;overflow=hidden;rotatable=0;points=[[0,0.5],[1,0.5]];portConstraint=eastwest;fontStyle=4" parent="hDQLbbaS15JgVn0vshfj-0" vertex="1">
          <mxGeometry y="34" width="160" height="26" as="geometry" />
        </mxCell>
        <mxCell id="aVG776f1OYNpe_4Xu9b4-5" value="+ Create()" style="text;align=left;verticalAlign=top;spacingLeft=4;spacingRight=4;overflow=hidden;rotatable=0;points=[[0,0.5],[1,0.5]];portConstraint=eastwest;fontStyle=4" parent="hDQLbbaS15JgVn0vshfj-0" vertex="1">
          <mxGeometry y="60" width="160" height="26" as="geometry" />
        </mxCell>
        <mxCell id="aVG776f1OYNpe_4Xu9b4-3" value="+ ListProducts()" style="text;align=left;verticalAlign=top;spacingLeft=4;spacingRight=4;overflow=hidden;rotatable=0;points=[[0,0.5],[1,0.5]];portConstraint=eastwest;fontStyle=4" parent="hDQLbbaS15JgVn0vshfj-0" vertex="1">
          <mxGeometry y="86" width="160" height="26" as="geometry" />
        </mxCell>
        <mxCell id="aVG776f1OYNpe_4Xu9b4-4" value="+ GetProductByID()" style="text;align=left;verticalAlign=top;spacingLeft=4;spacingRight=4;overflow=hidden;rotatable=0;points=[[0,0.5],[1,0.5]];portConstraint=eastwest;fontStyle=4" parent="hDQLbbaS15JgVn0vshfj-0" vertex="1">
          <mxGeometry y="112" width="160" height="26" as="geometry" />
        </mxCell>
        <mxCell id="hDQLbbaS15JgVn0vshfj-4" value="IUserService" style="swimlane;fontStyle=1;align=center;verticalAlign=top;childLayout=stackLayout;horizontal=1;startSize=26;horizontalStack=0;resizeParent=1;resizeLast=0;collapsible=1;marginBottom=0;rounded=0;shadow=0;strokeWidth=1;" parent="WIyWlLk6GJQsqaUBKTNV-1" vertex="1">
          <mxGeometry x="830" y="62.25" width="160" height="120" as="geometry">
            <mxRectangle x="130" y="380" width="160" height="26" as="alternateBounds" />
          </mxGeometry>
        </mxCell>
        <mxCell id="hDQLbbaS15JgVn0vshfj-6" value="" style="line;html=1;strokeWidth=1;align=left;verticalAlign=middle;spacingTop=-1;spacingLeft=3;spacingRight=3;rotatable=0;labelPosition=right;points=[];portConstraint=eastwest;" parent="hDQLbbaS15JgVn0vshfj-4" vertex="1">
          <mxGeometry y="26" width="160" height="8" as="geometry" />
        </mxCell>
        <mxCell id="hDQLbbaS15JgVn0vshfj-7" value="+ Login()" style="text;align=left;verticalAlign=top;spacingLeft=4;spacingRight=4;overflow=hidden;rotatable=0;points=[[0,0.5],[1,0.5]];portConstraint=eastwest;fontStyle=4" parent="hDQLbbaS15JgVn0vshfj-4" vertex="1">
          <mxGeometry y="34" width="160" height="26" as="geometry" />
        </mxCell>
        <mxCell id="lOFDa43hv-GlPolKp7jc-0" value="+ Register()" style="text;align=left;verticalAlign=top;spacingLeft=4;spacingRight=4;overflow=hidden;rotatable=0;points=[[0,0.5],[1,0.5]];portConstraint=eastwest;fontStyle=4" parent="hDQLbbaS15JgVn0vshfj-4" vertex="1">
          <mxGeometry y="60" width="160" height="26" as="geometry" />
        </mxCell>
        <mxCell id="lOFDa43hv-GlPolKp7jc-1" value="+ GetUserByID()" style="text;align=left;verticalAlign=top;spacingLeft=4;spacingRight=4;overflow=hidden;rotatable=0;points=[[0,0.5],[1,0.5]];portConstraint=eastwest;fontStyle=4" parent="hDQLbbaS15JgVn0vshfj-4" vertex="1">
          <mxGeometry y="86" width="160" height="26" as="geometry" />
        </mxCell>
        <mxCell id="hDQLbbaS15JgVn0vshfj-8" value="ICartService" style="swimlane;fontStyle=1;align=center;verticalAlign=top;childLayout=stackLayout;horizontal=1;startSize=26;horizontalStack=0;resizeParent=1;resizeLast=0;collapsible=1;marginBottom=0;rounded=0;shadow=0;strokeWidth=1;" parent="WIyWlLk6GJQsqaUBKTNV-1" vertex="1">
          <mxGeometry x="350" y="62.25" width="160" height="112" as="geometry">
            <mxRectangle x="130" y="380" width="160" height="26" as="alternateBounds" />
          </mxGeometry>
        </mxCell>
        <mxCell id="hDQLbbaS15JgVn0vshfj-10" value="" style="line;html=1;strokeWidth=1;align=left;verticalAlign=middle;spacingTop=-1;spacingLeft=3;spacingRight=3;rotatable=0;labelPosition=right;points=[];portConstraint=eastwest;" parent="hDQLbbaS15JgVn0vshfj-8" vertex="1">
          <mxGeometry y="26" width="160" height="8" as="geometry" />
        </mxCell>
        <mxCell id="hDQLbbaS15JgVn0vshfj-11" value="+ AddProduct()" style="text;align=left;verticalAlign=top;spacingLeft=4;spacingRight=4;overflow=hidden;rotatable=0;points=[[0,0.5],[1,0.5]];portConstraint=eastwest;fontStyle=4" parent="hDQLbbaS15JgVn0vshfj-8" vertex="1">
          <mxGeometry y="34" width="160" height="26" as="geometry" />
        </mxCell>
        <mxCell id="XEUJ_CyPRsDhsfIqvARe-0" value="+ RemoveProduct()" style="text;align=left;verticalAlign=top;spacingLeft=4;spacingRight=4;overflow=hidden;rotatable=0;points=[[0,0.5],[1,0.5]];portConstraint=eastwest;fontStyle=4" parent="hDQLbbaS15JgVn0vshfj-8" vertex="1">
          <mxGeometry y="60" width="160" height="26" as="geometry" />
        </mxCell>
        <mxCell id="XEUJ_CyPRsDhsfIqvARe-1" value="+GetCartByUserID()" style="text;align=left;verticalAlign=top;spacingLeft=4;spacingRight=4;overflow=hidden;rotatable=0;points=[[0,0.5],[1,0.5]];portConstraint=eastwest;fontStyle=4" parent="hDQLbbaS15JgVn0vshfj-8" vertex="1">
          <mxGeometry y="86" width="160" height="26" as="geometry" />
        </mxCell>
        <mxCell id="hDQLbbaS15JgVn0vshfj-12" value="IOrderService" style="swimlane;fontStyle=1;align=center;verticalAlign=top;childLayout=stackLayout;horizontal=1;startSize=26;horizontalStack=0;resizeParent=1;resizeLast=0;collapsible=1;marginBottom=0;rounded=0;shadow=0;strokeWidth=1;" parent="WIyWlLk6GJQsqaUBKTNV-1" vertex="1">
          <mxGeometry x="590" y="62.25" width="160" height="138" as="geometry">
            <mxRectangle x="130" y="380" width="160" height="26" as="alternateBounds" />
          </mxGeometry>
        </mxCell>
        <mxCell id="hDQLbbaS15JgVn0vshfj-14" value="" style="line;html=1;strokeWidth=1;align=left;verticalAlign=middle;spacingTop=-1;spacingLeft=3;spacingRight=3;rotatable=0;labelPosition=right;points=[];portConstraint=eastwest;" parent="hDQLbbaS15JgVn0vshfj-12" vertex="1">
          <mxGeometry y="26" width="160" height="8" as="geometry" />
        </mxCell>
        <mxCell id="hDQLbbaS15JgVn0vshfj-15" value="+ PlaceOrder()" style="text;align=left;verticalAlign=top;spacingLeft=4;spacingRight=4;overflow=hidden;rotatable=0;points=[[0,0.5],[1,0.5]];portConstraint=eastwest;fontStyle=4" parent="hDQLbbaS15JgVn0vshfj-12" vertex="1">
          <mxGeometry y="34" width="160" height="26" as="geometry" />
        </mxCell>
        <mxCell id="bxhZn-yvbYv5LsNtYdoc-0" value="+ GetOrderByID()" style="text;align=left;verticalAlign=top;spacingLeft=4;spacingRight=4;overflow=hidden;rotatable=0;points=[[0,0.5],[1,0.5]];portConstraint=eastwest;fontStyle=4" parent="hDQLbbaS15JgVn0vshfj-12" vertex="1">
          <mxGeometry y="60" width="160" height="26" as="geometry" />
        </mxCell>
        <mxCell id="bxhZn-yvbYv5LsNtYdoc-1" value="+ GetMyOrders()" style="text;align=left;verticalAlign=top;spacingLeft=4;spacingRight=4;overflow=hidden;rotatable=0;points=[[0,0.5],[1,0.5]];portConstraint=eastwest;fontStyle=4" parent="hDQLbbaS15JgVn0vshfj-12" vertex="1">
          <mxGeometry y="86" width="160" height="26" as="geometry" />
        </mxCell>
        <mxCell id="bxhZn-yvbYv5LsNtYdoc-2" value="+ CancelOrder()" style="text;align=left;verticalAlign=top;spacingLeft=4;spacingRight=4;overflow=hidden;rotatable=0;points=[[0,0.5],[1,0.5]];portConstraint=eastwest;fontStyle=4" parent="hDQLbbaS15JgVn0vshfj-12" vertex="1">
          <mxGeometry y="112" width="160" height="26" as="geometry" />
        </mxCell>
        <mxCell id="Zz6F_vYYsevLmO8efnMT-0" value="ProductRepository" style="swimlane;fontStyle=1;align=center;verticalAlign=top;childLayout=stackLayout;horizontal=1;startSize=26;horizontalStack=0;resizeParent=1;resizeLast=0;collapsible=1;marginBottom=0;rounded=0;shadow=0;strokeWidth=1;" parent="WIyWlLk6GJQsqaUBKTNV-1" vertex="1">
          <mxGeometry x="110" y="700.25" width="160" height="138" as="geometry">
            <mxRectangle x="130" y="380" width="160" height="26" as="alternateBounds" />
          </mxGeometry>
        </mxCell>
        <mxCell id="Zz6F_vYYsevLmO8efnMT-1" value="" style="line;html=1;strokeWidth=1;align=left;verticalAlign=middle;spacingTop=-1;spacingLeft=3;spacingRight=3;rotatable=0;labelPosition=right;points=[];portConstraint=eastwest;" parent="Zz6F_vYYsevLmO8efnMT-0" vertex="1">
          <mxGeometry y="26" width="160" height="8" as="geometry" />
        </mxCell>
        <mxCell id="Zz6F_vYYsevLmO8efnMT-2" value="+ ListProducts()" style="text;align=left;verticalAlign=top;spacingLeft=4;spacingRight=4;overflow=hidden;rotatable=0;points=[[0,0.5],[1,0.5]];portConstraint=eastwest;fontStyle=4" parent="Zz6F_vYYsevLmO8efnMT-0" vertex="1">
          <mxGeometry y="34" width="160" height="26" as="geometry" />
        </mxCell>
        <mxCell id="Zz6F_vYYsevLmO8efnMT-3" value="+ GetProductByID()" style="text;align=left;verticalAlign=top;spacingLeft=4;spacingRight=4;overflow=hidden;rotatable=0;points=[[0,0.5],[1,0.5]];portConstraint=eastwest;fontStyle=4" parent="Zz6F_vYYsevLmO8efnMT-0" vertex="1">
          <mxGeometry y="60" width="160" height="26" as="geometry" />
        </mxCell>
        <mxCell id="Zz6F_vYYsevLmO8efnMT-4" value="+ Create()" style="text;align=left;verticalAlign=top;spacingLeft=4;spacingRight=4;overflow=hidden;rotatable=0;points=[[0,0.5],[1,0.5]];portConstraint=eastwest;fontStyle=4" parent="Zz6F_vYYsevLmO8efnMT-0" vertex="1">
          <mxGeometry y="86" width="160" height="26" as="geometry" />
        </mxCell>
        <mxCell id="Zz6F_vYYsevLmO8efnMT-5" value="+ Update()" style="text;align=left;verticalAlign=top;spacingLeft=4;spacingRight=4;overflow=hidden;rotatable=0;points=[[0,0.5],[1,0.5]];portConstraint=eastwest;fontStyle=4" parent="Zz6F_vYYsevLmO8efnMT-0" vertex="1">
          <mxGeometry y="112" width="160" height="26" as="geometry" />
        </mxCell>
        <mxCell id="Zz6F_vYYsevLmO8efnMT-27" style="edgeStyle=orthogonalEdgeStyle;rounded=0;orthogonalLoop=1;jettySize=auto;html=1;exitX=0.5;exitY=0;exitDx=0;exitDy=0;dashed=1;strokeColor=default;align=center;verticalAlign=middle;fontFamily=Helvetica;fontSize=11;fontColor=default;labelBackgroundColor=default;endArrow=block;endFill=0;" parent="WIyWlLk6GJQsqaUBKTNV-1" source="Zz6F_vYYsevLmO8efnMT-6" target="51ml1QiSwezSpFaQSZXs-4" edge="1">
          <mxGeometry relative="1" as="geometry" />
        </mxCell>
        <mxCell id="Zz6F_vYYsevLmO8efnMT-6" value="UserRepository" style="swimlane;fontStyle=1;align=center;verticalAlign=top;childLayout=stackLayout;horizontal=1;startSize=26;horizontalStack=0;resizeParent=1;resizeLast=0;collapsible=1;marginBottom=0;rounded=0;shadow=0;strokeWidth=1;" parent="WIyWlLk6GJQsqaUBKTNV-1" vertex="1">
          <mxGeometry x="830" y="700.25" width="160" height="112" as="geometry">
            <mxRectangle x="130" y="380" width="160" height="26" as="alternateBounds" />
          </mxGeometry>
        </mxCell>
        <mxCell id="Zz6F_vYYsevLmO8efnMT-7" value="" style="line;html=1;strokeWidth=1;align=left;verticalAlign=middle;spacingTop=-1;spacingLeft=3;spacingRight=3;rotatable=0;labelPosition=right;points=[];portConstraint=eastwest;" parent="Zz6F_vYYsevLmO8efnMT-6" vertex="1">
          <mxGeometry y="26" width="160" height="8" as="geometry" />
        </mxCell>
        <mxCell id="Zz6F_vYYsevLmO8efnMT-8" value="+ Create()" style="text;align=left;verticalAlign=top;spacingLeft=4;spacingRight=4;overflow=hidden;rotatable=0;points=[[0,0.5],[1,0.5]];portConstraint=eastwest;fontStyle=4" parent="Zz6F_vYYsevLmO8efnMT-6" vertex="1">
          <mxGeometry y="34" width="160" height="26" as="geometry" />
        </mxCell>
        <mxCell id="Zz6F_vYYsevLmO8efnMT-9" value="+ GetUserByID()" style="text;align=left;verticalAlign=top;spacingLeft=4;spacingRight=4;overflow=hidden;rotatable=0;points=[[0,0.5],[1,0.5]];portConstraint=eastwest;fontStyle=4" parent="Zz6F_vYYsevLmO8efnMT-6" vertex="1">
          <mxGeometry y="60" width="160" height="26" as="geometry" />
        </mxCell>
        <mxCell id="Zz6F_vYYsevLmO8efnMT-10" value="+ Update()" style="text;align=left;verticalAlign=top;spacingLeft=4;spacingRight=4;overflow=hidden;rotatable=0;points=[[0,0.5],[1,0.5]];portConstraint=eastwest;fontStyle=4" parent="Zz6F_vYYsevLmO8efnMT-6" vertex="1">
          <mxGeometry y="86" width="160" height="26" as="geometry" />
        </mxCell>
        <mxCell id="Zz6F_vYYsevLmO8efnMT-26" style="edgeStyle=orthogonalEdgeStyle;rounded=0;orthogonalLoop=1;jettySize=auto;html=1;exitX=0.5;exitY=0;exitDx=0;exitDy=0;dashed=1;strokeColor=default;align=center;verticalAlign=middle;fontFamily=Helvetica;fontSize=11;fontColor=default;labelBackgroundColor=default;endArrow=block;endFill=0;" parent="WIyWlLk6GJQsqaUBKTNV-1" source="Zz6F_vYYsevLmO8efnMT-11" target="51ml1QiSwezSpFaQSZXs-8" edge="1">
          <mxGeometry relative="1" as="geometry" />
        </mxCell>
        <mxCell id="Zz6F_vYYsevLmO8efnMT-11" value="CartRepository" style="swimlane;fontStyle=1;align=center;verticalAlign=top;childLayout=stackLayout;horizontal=1;startSize=26;horizontalStack=0;resizeParent=1;resizeLast=0;collapsible=1;marginBottom=0;rounded=0;shadow=0;strokeWidth=1;" parent="WIyWlLk6GJQsqaUBKTNV-1" vertex="1">
          <mxGeometry x="350" y="700.25" width="160" height="112" as="geometry">
            <mxRectangle x="130" y="380" width="160" height="26" as="alternateBounds" />
          </mxGeometry>
        </mxCell>
        <mxCell id="Zz6F_vYYsevLmO8efnMT-12" value="" style="line;html=1;strokeWidth=1;align=left;verticalAlign=middle;spacingTop=-1;spacingLeft=3;spacingRight=3;rotatable=0;labelPosition=right;points=[];portConstraint=eastwest;" parent="Zz6F_vYYsevLmO8efnMT-11" vertex="1">
          <mxGeometry y="26" width="160" height="8" as="geometry" />
        </mxCell>
        <mxCell id="Zz6F_vYYsevLmO8efnMT-13" value="+ Create()" style="text;align=left;verticalAlign=top;spacingLeft=4;spacingRight=4;overflow=hidden;rotatable=0;points=[[0,0.5],[1,0.5]];portConstraint=eastwest;fontStyle=4" parent="Zz6F_vYYsevLmO8efnMT-11" vertex="1">
          <mxGeometry y="34" width="160" height="26" as="geometry" />
        </mxCell>
        <mxCell id="Zz6F_vYYsevLmO8efnMT-14" value="+ Update()" style="text;align=left;verticalAlign=top;spacingLeft=4;spacingRight=4;overflow=hidden;rotatable=0;points=[[0,0.5],[1,0.5]];portConstraint=eastwest;fontStyle=4" parent="Zz6F_vYYsevLmO8efnMT-11" vertex="1">
          <mxGeometry y="60" width="160" height="26" as="geometry" />
        </mxCell>
        <mxCell id="Zz6F_vYYsevLmO8efnMT-15" value="+ GetCartByUserID()" style="text;align=left;verticalAlign=top;spacingLeft=4;spacingRight=4;overflow=hidden;rotatable=0;points=[[0,0.5],[1,0.5]];portConstraint=eastwest;fontStyle=4" parent="Zz6F_vYYsevLmO8efnMT-11" vertex="1">
          <mxGeometry y="86" width="160" height="26" as="geometry" />
        </mxCell>
        <mxCell id="Zz6F_vYYsevLmO8efnMT-25" style="edgeStyle=orthogonalEdgeStyle;rounded=0;orthogonalLoop=1;jettySize=auto;html=1;exitX=0.5;exitY=0;exitDx=0;exitDy=0;dashed=1;strokeColor=default;align=center;verticalAlign=middle;fontFamily=Helvetica;fontSize=11;fontColor=default;labelBackgroundColor=default;endArrow=block;endFill=0;" parent="WIyWlLk6GJQsqaUBKTNV-1" source="Zz6F_vYYsevLmO8efnMT-16" target="51ml1QiSwezSpFaQSZXs-12" edge="1">
          <mxGeometry relative="1" as="geometry" />
        </mxCell>
        <mxCell id="Zz6F_vYYsevLmO8efnMT-16" value="OrderRepository" style="swimlane;fontStyle=1;align=center;verticalAlign=top;childLayout=stackLayout;horizontal=1;startSize=26;horizontalStack=0;resizeParent=1;resizeLast=0;collapsible=1;marginBottom=0;rounded=0;shadow=0;strokeWidth=1;" parent="WIyWlLk6GJQsqaUBKTNV-1" vertex="1">
          <mxGeometry x="590" y="700.25" width="160" height="138" as="geometry">
            <mxRectangle x="130" y="380" width="160" height="26" as="alternateBounds" />
          </mxGeometry>
        </mxCell>
        <mxCell id="Zz6F_vYYsevLmO8efnMT-17" value="" style="line;html=1;strokeWidth=1;align=left;verticalAlign=middle;spacingTop=-1;spacingLeft=3;spacingRight=3;rotatable=0;labelPosition=right;points=[];portConstraint=eastwest;" parent="Zz6F_vYYsevLmO8efnMT-16" vertex="1">
          <mxGeometry y="26" width="160" height="8" as="geometry" />
        </mxCell>
        <mxCell id="Zz6F_vYYsevLmO8efnMT-18" value="+ Create()" style="text;align=left;verticalAlign=top;spacingLeft=4;spacingRight=4;overflow=hidden;rotatable=0;points=[[0,0.5],[1,0.5]];portConstraint=eastwest;fontStyle=4" parent="Zz6F_vYYsevLmO8efnMT-16" vertex="1">
          <mxGeometry y="34" width="160" height="26" as="geometry" />
        </mxCell>
        <mxCell id="Zz6F_vYYsevLmO8efnMT-19" value="+ Update()" style="text;align=left;verticalAlign=top;spacingLeft=4;spacingRight=4;overflow=hidden;rotatable=0;points=[[0,0.5],[1,0.5]];portConstraint=eastwest;fontStyle=4" parent="Zz6F_vYYsevLmO8efnMT-16" vertex="1">
          <mxGeometry y="60" width="160" height="26" as="geometry" />
        </mxCell>
        <mxCell id="Zz6F_vYYsevLmO8efnMT-20" value="+ GetMyOrders()" style="text;align=left;verticalAlign=top;spacingLeft=4;spacingRight=4;overflow=hidden;rotatable=0;points=[[0,0.5],[1,0.5]];portConstraint=eastwest;fontStyle=4" parent="Zz6F_vYYsevLmO8efnMT-16" vertex="1">
          <mxGeometry y="86" width="160" height="26" as="geometry" />
        </mxCell>
        <mxCell id="Zz6F_vYYsevLmO8efnMT-21" value="+ GetOrderByID()" style="text;align=left;verticalAlign=top;spacingLeft=4;spacingRight=4;overflow=hidden;rotatable=0;points=[[0,0.5],[1,0.5]];portConstraint=eastwest;fontStyle=4" parent="Zz6F_vYYsevLmO8efnMT-16" vertex="1">
          <mxGeometry y="112" width="160" height="26" as="geometry" />
        </mxCell>
        <mxCell id="Zz6F_vYYsevLmO8efnMT-22" style="edgeStyle=orthogonalEdgeStyle;rounded=0;orthogonalLoop=1;jettySize=auto;html=1;exitX=0.5;exitY=0;exitDx=0;exitDy=0;entryX=0.503;entryY=0.963;entryDx=0;entryDy=0;entryPerimeter=0;dashed=1;strokeColor=default;align=center;verticalAlign=middle;fontFamily=Helvetica;fontSize=11;fontColor=default;labelBackgroundColor=default;endArrow=block;endFill=0;" parent="WIyWlLk6GJQsqaUBKTNV-1" source="Zz6F_vYYsevLmO8efnMT-0" target="aVG776f1OYNpe_4Xu9b4-17" edge="1">
          <mxGeometry relative="1" as="geometry" />
        </mxCell>
        <mxCell id="Zz6F_vYYsevLmO8efnMT-28" value="DA" style="shape=umlFrame;whiteSpace=wrap;html=1;pointerEvents=0;fontFamily=Helvetica;fontSize=11;fontColor=default;labelBackgroundColor=default;" parent="WIyWlLk6GJQsqaUBKTNV-1" vertex="1">
          <mxGeometry x="40" y="679.75" width="1240" height="182.5" as="geometry" />
        </mxCell>
        <mxCell id="Zz6F_vYYsevLmO8efnMT-29" value="BL" style="shape=umlFrame;whiteSpace=wrap;html=1;pointerEvents=0;fontFamily=Helvetica;fontSize=11;fontColor=default;labelBackgroundColor=default;" parent="WIyWlLk6GJQsqaUBKTNV-1" vertex="1">
          <mxGeometry x="40" y="40" width="1240" height="622.25" as="geometry" />
        </mxCell>
        <mxCell id="huau3pTb8r-ju4itujI7-23" style="edgeStyle=orthogonalEdgeStyle;rounded=0;orthogonalLoop=1;jettySize=auto;html=1;exitX=0.5;exitY=0;exitDx=0;exitDy=0;endArrow=block;endFill=0;dashed=1;" parent="WIyWlLk6GJQsqaUBKTNV-1" source="huau3pTb8r-ju4itujI7-0" target="huau3pTb8r-ju4itujI7-10" edge="1">
          <mxGeometry relative="1" as="geometry" />
        </mxCell>
        <mxCell id="huau3pTb8r-ju4itujI7-0" value="PaymentService" style="swimlane;fontStyle=1;align=center;verticalAlign=top;childLayout=stackLayout;horizontal=1;startSize=26;horizontalStack=0;resizeParent=1;resizeLast=0;collapsible=1;marginBottom=0;rounded=0;shadow=0;strokeWidth=1;" parent="WIyWlLk6GJQsqaUBKTNV-1" vertex="1">
          <mxGeometry x="1080" y="262.25" width="160" height="112" as="geometry">
            <mxRectangle x="130" y="380" width="160" height="26" as="alternateBounds" />
          </mxGeometry>
        </mxCell>
        <mxCell id="huau3pTb8r-ju4itujI7-1" value="" style="line;html=1;strokeWidth=1;align=left;verticalAlign=middle;spacingTop=-1;spacingLeft=3;spacingRight=3;rotatable=0;labelPosition=right;points=[];portConstraint=eastwest;" parent="huau3pTb8r-ju4itujI7-0" vertex="1">
          <mxGeometry y="26" width="160" height="8" as="geometry" />
        </mxCell>
        <mxCell id="huau3pTb8r-ju4itujI7-2" value="+ AddPayment()" style="text;align=left;verticalAlign=top;spacingLeft=4;spacingRight=4;overflow=hidden;rotatable=0;points=[[0,0.5],[1,0.5]];portConstraint=eastwest;fontStyle=4" parent="huau3pTb8r-ju4itujI7-0" vertex="1">
          <mxGeometry y="34" width="160" height="26" as="geometry" />
        </mxCell>
        <mxCell id="huau3pTb8r-ju4itujI7-22" style="edgeStyle=orthogonalEdgeStyle;rounded=0;orthogonalLoop=1;jettySize=auto;html=1;exitX=0.5;exitY=0;exitDx=0;exitDy=0;startArrow=open;startFill=0;dashed=1;endArrow=none;endFill=0;" parent="WIyWlLk6GJQsqaUBKTNV-1" source="huau3pTb8r-ju4itujI7-5" target="huau3pTb8r-ju4itujI7-0" edge="1">
          <mxGeometry relative="1" as="geometry" />
        </mxCell>
        <mxCell id="huau3pTb8r-ju4itujI7-5" value="IPaymentRepository" style="swimlane;fontStyle=1;align=center;verticalAlign=top;childLayout=stackLayout;horizontal=1;startSize=26;horizontalStack=0;resizeParent=1;resizeLast=0;collapsible=1;marginBottom=0;rounded=0;shadow=0;strokeWidth=1;" parent="WIyWlLk6GJQsqaUBKTNV-1" vertex="1">
          <mxGeometry x="1080" y="502.25" width="160" height="112" as="geometry">
            <mxRectangle x="130" y="380" width="160" height="26" as="alternateBounds" />
          </mxGeometry>
        </mxCell>
        <mxCell id="huau3pTb8r-ju4itujI7-6" value="" style="line;html=1;strokeWidth=1;align=left;verticalAlign=middle;spacingTop=-1;spacingLeft=3;spacingRight=3;rotatable=0;labelPosition=right;points=[];portConstraint=eastwest;" parent="huau3pTb8r-ju4itujI7-5" vertex="1">
          <mxGeometry y="26" width="160" height="8" as="geometry" />
        </mxCell>
        <mxCell id="huau3pTb8r-ju4itujI7-7" value="+ AddPayment()" style="text;align=left;verticalAlign=top;spacingLeft=4;spacingRight=4;overflow=hidden;rotatable=0;points=[[0,0.5],[1,0.5]];portConstraint=eastwest;fontStyle=4" parent="huau3pTb8r-ju4itujI7-5" vertex="1">
          <mxGeometry y="34" width="160" height="26" as="geometry" />
        </mxCell>
        <mxCell id="huau3pTb8r-ju4itujI7-10" value="IPaymentService" style="swimlane;fontStyle=1;align=center;verticalAlign=top;childLayout=stackLayout;horizontal=1;startSize=26;horizontalStack=0;resizeParent=1;resizeLast=0;collapsible=1;marginBottom=0;rounded=0;shadow=0;strokeWidth=1;" parent="WIyWlLk6GJQsqaUBKTNV-1" vertex="1">
          <mxGeometry x="1080" y="62.25" width="160" height="112" as="geometry">
            <mxRectangle x="130" y="380" width="160" height="26" as="alternateBounds" />
          </mxGeometry>
        </mxCell>
        <mxCell id="huau3pTb8r-ju4itujI7-11" value="" style="line;html=1;strokeWidth=1;align=left;verticalAlign=middle;spacingTop=-1;spacingLeft=3;spacingRight=3;rotatable=0;labelPosition=right;points=[];portConstraint=eastwest;" parent="huau3pTb8r-ju4itujI7-10" vertex="1">
          <mxGeometry y="26" width="160" height="8" as="geometry" />
        </mxCell>
        <mxCell id="huau3pTb8r-ju4itujI7-12" value="+ AddPayment()" style="text;align=left;verticalAlign=top;spacingLeft=4;spacingRight=4;overflow=hidden;rotatable=0;points=[[0,0.5],[1,0.5]];portConstraint=eastwest;fontStyle=4" parent="huau3pTb8r-ju4itujI7-10" vertex="1">
          <mxGeometry y="34" width="160" height="26" as="geometry" />
        </mxCell>
        <mxCell id="huau3pTb8r-ju4itujI7-20" style="edgeStyle=orthogonalEdgeStyle;rounded=0;orthogonalLoop=1;jettySize=auto;html=1;exitX=0.5;exitY=0;exitDx=0;exitDy=0;endArrow=block;endFill=0;dashed=1;" parent="WIyWlLk6GJQsqaUBKTNV-1" source="huau3pTb8r-ju4itujI7-15" target="huau3pTb8r-ju4itujI7-5" edge="1">
          <mxGeometry relative="1" as="geometry" />
        </mxCell>
        <mxCell id="huau3pTb8r-ju4itujI7-15" value="PaymentRepository" style="swimlane;fontStyle=1;align=center;verticalAlign=top;childLayout=stackLayout;horizontal=1;startSize=26;horizontalStack=0;resizeParent=1;resizeLast=0;collapsible=1;marginBottom=0;rounded=0;shadow=0;strokeWidth=1;" parent="WIyWlLk6GJQsqaUBKTNV-1" vertex="1">
          <mxGeometry x="1080" y="700.25" width="160" height="112" as="geometry">
            <mxRectangle x="130" y="380" width="160" height="26" as="alternateBounds" />
          </mxGeometry>
        </mxCell>
        <mxCell id="huau3pTb8r-ju4itujI7-16" value="" style="line;html=1;strokeWidth=1;align=left;verticalAlign=middle;spacingTop=-1;spacingLeft=3;spacingRight=3;rotatable=0;labelPosition=right;points=[];portConstraint=eastwest;" parent="huau3pTb8r-ju4itujI7-15" vertex="1">
          <mxGeometry y="26" width="160" height="8" as="geometry" />
        </mxCell>
        <mxCell id="huau3pTb8r-ju4itujI7-17" value="+ AddPayment()" style="text;align=left;verticalAlign=top;spacingLeft=4;spacingRight=4;overflow=hidden;rotatable=0;points=[[0,0.5],[1,0.5]];portConstraint=eastwest;fontStyle=4" parent="huau3pTb8r-ju4itujI7-15" vertex="1">
          <mxGeometry y="34" width="160" height="26" as="geometry" />
        </mxCell>
        <mxCell id="huau3pTb8r-ju4itujI7-25" value="Payment" style="swimlane;fontStyle=1;align=center;verticalAlign=top;childLayout=stackLayout;horizontal=1;startSize=26;horizontalStack=0;resizeParent=1;resizeLast=0;collapsible=1;marginBottom=0;rounded=0;shadow=0;strokeWidth=1;" parent="WIyWlLk6GJQsqaUBKTNV-1" vertex="1">
          <mxGeometry x="1320" y="40" width="160" height="112" as="geometry">
            <mxRectangle x="130" y="380" width="160" height="26" as="alternateBounds" />
          </mxGeometry>
        </mxCell>
        <mxCell id="huau3pTb8r-ju4itujI7-26" value="" style="line;html=1;strokeWidth=1;align=left;verticalAlign=middle;spacingTop=-1;spacingLeft=3;spacingRight=3;rotatable=0;labelPosition=right;points=[];portConstraint=eastwest;" parent="huau3pTb8r-ju4itujI7-25" vertex="1">
          <mxGeometry y="26" width="160" height="8" as="geometry" />
        </mxCell>
        <mxCell id="huau3pTb8r-ju4itujI7-27" value="+ AddPayment()" style="text;align=left;verticalAlign=top;spacingLeft=4;spacingRight=4;overflow=hidden;rotatable=0;points=[[0,0.5],[1,0.5]];portConstraint=eastwest;fontStyle=4" parent="huau3pTb8r-ju4itujI7-25" vertex="1">
          <mxGeometry y="34" width="160" height="26" as="geometry" />
        </mxCell>
        <mxCell id="huau3pTb8r-ju4itujI7-28" value="User" style="swimlane;fontStyle=1;align=center;verticalAlign=top;childLayout=stackLayout;horizontal=1;startSize=26;horizontalStack=0;resizeParent=1;resizeLast=0;collapsible=1;marginBottom=0;rounded=0;shadow=0;strokeWidth=1;" parent="WIyWlLk6GJQsqaUBKTNV-1" vertex="1">
          <mxGeometry x="1320" y="200.25" width="160" height="112" as="geometry">
            <mxRectangle x="130" y="380" width="160" height="26" as="alternateBounds" />
          </mxGeometry>
        </mxCell>
        <mxCell id="huau3pTb8r-ju4itujI7-29" value="" style="line;html=1;strokeWidth=1;align=left;verticalAlign=middle;spacingTop=-1;spacingLeft=3;spacingRight=3;rotatable=0;labelPosition=right;points=[];portConstraint=eastwest;" parent="huau3pTb8r-ju4itujI7-28" vertex="1">
          <mxGeometry y="26" width="160" height="8" as="geometry" />
        </mxCell>
        <mxCell id="huau3pTb8r-ju4itujI7-30" value="+ AddPayment()" style="text;align=left;verticalAlign=top;spacingLeft=4;spacingRight=4;overflow=hidden;rotatable=0;points=[[0,0.5],[1,0.5]];portConstraint=eastwest;fontStyle=4" parent="huau3pTb8r-ju4itujI7-28" vertex="1">
          <mxGeometry y="34" width="160" height="26" as="geometry" />
        </mxCell>
        <mxCell id="huau3pTb8r-ju4itujI7-31" value="Product" style="swimlane;fontStyle=1;align=center;verticalAlign=top;childLayout=stackLayout;horizontal=1;startSize=26;horizontalStack=0;resizeParent=1;resizeLast=0;collapsible=1;marginBottom=0;rounded=0;shadow=0;strokeWidth=1;" parent="WIyWlLk6GJQsqaUBKTNV-1" vertex="1">
          <mxGeometry x="1320" y="360" width="160" height="112" as="geometry">
            <mxRectangle x="130" y="380" width="160" height="26" as="alternateBounds" />
          </mxGeometry>
        </mxCell>
        <mxCell id="huau3pTb8r-ju4itujI7-32" value="" style="line;html=1;strokeWidth=1;align=left;verticalAlign=middle;spacingTop=-1;spacingLeft=3;spacingRight=3;rotatable=0;labelPosition=right;points=[];portConstraint=eastwest;" parent="huau3pTb8r-ju4itujI7-31" vertex="1">
          <mxGeometry y="26" width="160" height="8" as="geometry" />
        </mxCell>
        <mxCell id="huau3pTb8r-ju4itujI7-33" value="+ AddPayment()" style="text;align=left;verticalAlign=top;spacingLeft=4;spacingRight=4;overflow=hidden;rotatable=0;points=[[0,0.5],[1,0.5]];portConstraint=eastwest;fontStyle=4" parent="huau3pTb8r-ju4itujI7-31" vertex="1">
          <mxGeometry y="34" width="160" height="26" as="geometry" />
        </mxCell>
        <mxCell id="huau3pTb8r-ju4itujI7-34" value="Order" style="swimlane;fontStyle=1;align=center;verticalAlign=top;childLayout=stackLayout;horizontal=1;startSize=26;horizontalStack=0;resizeParent=1;resizeLast=0;collapsible=1;marginBottom=0;rounded=0;shadow=0;strokeWidth=1;" parent="WIyWlLk6GJQsqaUBKTNV-1" vertex="1">
          <mxGeometry x="1320" y="516.25" width="160" height="112" as="geometry">
            <mxRectangle x="130" y="380" width="160" height="26" as="alternateBounds" />
          </mxGeometry>
        </mxCell>
        <mxCell id="huau3pTb8r-ju4itujI7-35" value="" style="line;html=1;strokeWidth=1;align=left;verticalAlign=middle;spacingTop=-1;spacingLeft=3;spacingRight=3;rotatable=0;labelPosition=right;points=[];portConstraint=eastwest;" parent="huau3pTb8r-ju4itujI7-34" vertex="1">
          <mxGeometry y="26" width="160" height="8" as="geometry" />
        </mxCell>
        <mxCell id="huau3pTb8r-ju4itujI7-36" value="+ AddPayment()" style="text;align=left;verticalAlign=top;spacingLeft=4;spacingRight=4;overflow=hidden;rotatable=0;points=[[0,0.5],[1,0.5]];portConstraint=eastwest;fontStyle=4" parent="huau3pTb8r-ju4itujI7-34" vertex="1">
          <mxGeometry y="34" width="160" height="26" as="geometry" />
        </mxCell>
        <mxCell id="huau3pTb8r-ju4itujI7-37" value="Cart" style="swimlane;fontStyle=1;align=center;verticalAlign=top;childLayout=stackLayout;horizontal=1;startSize=26;horizontalStack=0;resizeParent=1;resizeLast=0;collapsible=1;marginBottom=0;rounded=0;shadow=0;strokeWidth=1;" parent="WIyWlLk6GJQsqaUBKTNV-1" vertex="1">
          <mxGeometry x="1320" y="679.75" width="160" height="112" as="geometry">
            <mxRectangle x="130" y="380" width="160" height="26" as="alternateBounds" />
          </mxGeometry>
        </mxCell>
        <mxCell id="huau3pTb8r-ju4itujI7-38" value="" style="line;html=1;strokeWidth=1;align=left;verticalAlign=middle;spacingTop=-1;spacingLeft=3;spacingRight=3;rotatable=0;labelPosition=right;points=[];portConstraint=eastwest;" parent="huau3pTb8r-ju4itujI7-37" vertex="1">
          <mxGeometry y="26" width="160" height="8" as="geometry" />
        </mxCell>
        <mxCell id="huau3pTb8r-ju4itujI7-39" value="+ AddPayment()" style="text;align=left;verticalAlign=top;spacingLeft=4;spacingRight=4;overflow=hidden;rotatable=0;points=[[0,0.5],[1,0.5]];portConstraint=eastwest;fontStyle=4" parent="huau3pTb8r-ju4itujI7-37" vertex="1">
          <mxGeometry y="34" width="160" height="26" as="geometry" />
        </mxCell>
      </root>
    </mxGraphModel>
  </diagram>
  <diagram id="UC1S_jraOrGrRyetPlLG" name="BL">
    <mxGraphModel dx="1363" dy="827" grid="1" gridSize="10" guides="1" tooltips="1" connect="1" arrows="1" fold="1" page="1" pageScale="1" pageWidth="1169" pageHeight="827" math="0" shadow="0">
      <root>
        <mxCell id="0" />
        <mxCell id="1" parent="0" />
        <mxCell id="pnGU21rXxWi9947GBNGK-1" style="edgeStyle=orthogonalEdgeStyle;rounded=0;orthogonalLoop=1;jettySize=auto;html=1;exitX=0.5;exitY=0;exitDx=0;exitDy=0;dashed=1;strokeColor=default;align=center;verticalAlign=middle;fontFamily=Helvetica;fontSize=11;fontColor=default;labelBackgroundColor=default;endArrow=block;endFill=0;entryX=0.5;entryY=1;entryDx=0;entryDy=0;" parent="1" source="pnGU21rXxWi9947GBNGK-3" target="pnGU21rXxWi9947GBNGK-135" edge="1">
          <mxGeometry relative="1" as="geometry">
            <mxPoint x="250" y="180" as="targetPoint" />
          </mxGeometry>
        </mxCell>
        <mxCell id="pnGU21rXxWi9947GBNGK-2" style="edgeStyle=orthogonalEdgeStyle;rounded=0;orthogonalLoop=1;jettySize=auto;html=1;exitX=0.5;exitY=1;exitDx=0;exitDy=0;dashed=1;strokeColor=default;align=center;verticalAlign=middle;fontFamily=Helvetica;fontSize=11;fontColor=default;labelBackgroundColor=default;endArrow=open;endFill=0;" parent="1" source="pnGU21rXxWi9947GBNGK-3" target="pnGU21rXxWi9947GBNGK-32" edge="1">
          <mxGeometry relative="1" as="geometry" />
        </mxCell>
        <mxCell id="pnGU21rXxWi9947GBNGK-3" value="SportsmanService" style="swimlane;fontStyle=1;align=center;verticalAlign=top;childLayout=stackLayout;horizontal=1;startSize=26;horizontalStack=0;resizeParent=1;resizeLast=0;collapsible=1;marginBottom=0;rounded=0;shadow=0;strokeWidth=1;" parent="1" vertex="1">
          <mxGeometry x="62.46153846153847" y="218.93888719975675" width="142.76923076923077" height="160.0014077227121" as="geometry">
            <mxRectangle x="130" y="380" width="160" height="26" as="alternateBounds" />
          </mxGeometry>
        </mxCell>
        <mxCell id="pnGU21rXxWi9947GBNGK-4" value="" style="line;html=1;strokeWidth=1;align=left;verticalAlign=middle;spacingTop=-1;spacingLeft=3;spacingRight=3;rotatable=0;labelPosition=right;points=[];portConstraint=eastwest;" parent="pnGU21rXxWi9947GBNGK-3" vertex="1">
          <mxGeometry y="26" width="142.76923076923077" height="7.880814837336576" as="geometry" />
        </mxCell>
        <mxCell id="pnGU21rXxWi9947GBNGK-5" value="+ Update()" style="text;align=left;verticalAlign=top;spacingLeft=4;spacingRight=4;overflow=hidden;rotatable=0;points=[[0,0.5],[1,0.5]];portConstraint=eastwest;fontStyle=4" parent="pnGU21rXxWi9947GBNGK-3" vertex="1">
          <mxGeometry y="33.88081483733657" width="142.76923076923077" height="25.61264822134387" as="geometry" />
        </mxCell>
        <mxCell id="pnGU21rXxWi9947GBNGK-6" value="+ Create()" style="text;align=left;verticalAlign=top;spacingLeft=4;spacingRight=4;overflow=hidden;rotatable=0;points=[[0,0.5],[1,0.5]];portConstraint=eastwest;fontStyle=4" parent="pnGU21rXxWi9947GBNGK-3" vertex="1">
          <mxGeometry y="59.49346305868045" width="142.76923076923077" height="25.61264822134387" as="geometry" />
        </mxCell>
        <mxCell id="pnGU21rXxWi9947GBNGK-7" value="+ ListSportsmen()" style="text;align=left;verticalAlign=top;spacingLeft=4;spacingRight=4;overflow=hidden;rotatable=0;points=[[0,0.5],[1,0.5]];portConstraint=eastwest;fontStyle=4" parent="pnGU21rXxWi9947GBNGK-3" vertex="1">
          <mxGeometry y="85.10611128002432" width="142.76923076923077" height="25.61264822134387" as="geometry" />
        </mxCell>
        <mxCell id="pnGU21rXxWi9947GBNGK-8" value="+ GetSportsmanByID()" style="text;align=left;verticalAlign=top;spacingLeft=4;spacingRight=4;overflow=hidden;rotatable=0;points=[[0,0.5],[1,0.5]];portConstraint=eastwest;fontStyle=4" parent="pnGU21rXxWi9947GBNGK-3" vertex="1">
          <mxGeometry y="110.7187595013682" width="142.76923076923077" height="25.61264822134387" as="geometry" />
        </mxCell>
        <mxCell id="i6aTKDcYkG1T6r6kzWJ1-25" value="+ ListResults()" style="text;align=left;verticalAlign=top;spacingLeft=4;spacingRight=4;overflow=hidden;rotatable=0;points=[[0,0.5],[1,0.5]];portConstraint=eastwest;fontStyle=4" parent="pnGU21rXxWi9947GBNGK-3" vertex="1">
          <mxGeometry y="136.33140772271207" width="142.76923076923077" height="23.67" as="geometry" />
        </mxCell>
        <mxCell id="pnGU21rXxWi9947GBNGK-32" value="ISportsmanRepository" style="swimlane;fontStyle=1;align=center;verticalAlign=top;childLayout=stackLayout;horizontal=1;startSize=26;horizontalStack=0;resizeParent=1;resizeLast=0;collapsible=1;marginBottom=0;rounded=0;shadow=0;strokeWidth=1;" parent="1" vertex="1">
          <mxGeometry x="62.46153846153847" y="441.593332319854" width="142.77" height="160.0014077227121" as="geometry">
            <mxRectangle x="130" y="380" width="160" height="26" as="alternateBounds" />
          </mxGeometry>
        </mxCell>
        <mxCell id="pnGU21rXxWi9947GBNGK-33" value="" style="line;html=1;strokeWidth=1;align=left;verticalAlign=middle;spacingTop=-1;spacingLeft=3;spacingRight=3;rotatable=0;labelPosition=right;points=[];portConstraint=eastwest;" parent="pnGU21rXxWi9947GBNGK-32" vertex="1">
          <mxGeometry y="26" width="142.77" height="7.880814837336577" as="geometry" />
        </mxCell>
        <mxCell id="pnGU21rXxWi9947GBNGK-34" value="+ Update()" style="text;align=left;verticalAlign=top;spacingLeft=4;spacingRight=4;overflow=hidden;rotatable=0;points=[[0,0.5],[1,0.5]];portConstraint=eastwest;fontStyle=4" parent="pnGU21rXxWi9947GBNGK-32" vertex="1">
          <mxGeometry y="33.88081483733658" width="142.77" height="25.612648221343875" as="geometry" />
        </mxCell>
        <mxCell id="pnGU21rXxWi9947GBNGK-35" value="+ Create()" style="text;align=left;verticalAlign=top;spacingLeft=4;spacingRight=4;overflow=hidden;rotatable=0;points=[[0,0.5],[1,0.5]];portConstraint=eastwest;fontStyle=4" parent="pnGU21rXxWi9947GBNGK-32" vertex="1">
          <mxGeometry y="59.493463058680454" width="142.77" height="25.612648221343875" as="geometry" />
        </mxCell>
        <mxCell id="pnGU21rXxWi9947GBNGK-36" value="+ ListSportsmen()" style="text;align=left;verticalAlign=top;spacingLeft=4;spacingRight=4;overflow=hidden;rotatable=0;points=[[0,0.5],[1,0.5]];portConstraint=eastwest;fontStyle=4" parent="pnGU21rXxWi9947GBNGK-32" vertex="1">
          <mxGeometry y="85.10611128002432" width="142.77" height="25.612648221343875" as="geometry" />
        </mxCell>
        <mxCell id="pnGU21rXxWi9947GBNGK-37" value="+ GetSportsmanByID()" style="text;align=left;verticalAlign=top;spacingLeft=4;spacingRight=4;overflow=hidden;rotatable=0;points=[[0,0.5],[1,0.5]];portConstraint=eastwest;fontStyle=4" parent="pnGU21rXxWi9947GBNGK-32" vertex="1">
          <mxGeometry y="110.7187595013682" width="142.77" height="25.612648221343875" as="geometry" />
        </mxCell>
        <mxCell id="i6aTKDcYkG1T6r6kzWJ1-26" value="+ ListResults()" style="text;align=left;verticalAlign=top;spacingLeft=4;spacingRight=4;overflow=hidden;rotatable=0;points=[[0,0.5],[1,0.5]];portConstraint=eastwest;fontStyle=4" parent="pnGU21rXxWi9947GBNGK-32" vertex="1">
          <mxGeometry y="136.33140772271207" width="142.77" height="23.67" as="geometry" />
        </mxCell>
        <mxCell id="pnGU21rXxWi9947GBNGK-102" style="edgeStyle=orthogonalEdgeStyle;rounded=0;orthogonalLoop=1;jettySize=auto;html=1;dashed=1;strokeColor=default;align=center;verticalAlign=middle;fontFamily=Helvetica;fontSize=11;fontColor=default;labelBackgroundColor=default;endArrow=block;endFill=0;entryX=0.5;entryY=1;entryDx=0;entryDy=0;exitX=0.5;exitY=0;exitDx=0;exitDy=0;" parent="1" source="K8hFYXdYiZ7QDnOWog-U-1" target="pnGU21rXxWi9947GBNGK-32" edge="1">
          <mxGeometry relative="1" as="geometry">
            <mxPoint x="220" y="620" as="sourcePoint" />
            <mxPoint x="220" y="620" as="targetPoint" />
          </mxGeometry>
        </mxCell>
        <mxCell id="pnGU21rXxWi9947GBNGK-103" value="DA" style="shape=umlFrame;whiteSpace=wrap;html=1;pointerEvents=0;fontFamily=Helvetica;fontSize=11;fontColor=default;labelBackgroundColor=default;" parent="1" vertex="1">
          <mxGeometry y="630.22" width="1160" height="189.78" as="geometry" />
        </mxCell>
        <mxCell id="pnGU21rXxWi9947GBNGK-104" value="BL" style="shape=umlFrame;whiteSpace=wrap;html=1;pointerEvents=0;fontFamily=Helvetica;fontSize=11;fontColor=default;labelBackgroundColor=default;" parent="1" vertex="1">
          <mxGeometry width="1160" height="612.9796290665855" as="geometry" />
        </mxCell>
        <mxCell id="pnGU21rXxWi9947GBNGK-135" value="ISportsmanService" style="swimlane;fontStyle=1;align=center;verticalAlign=top;childLayout=stackLayout;horizontal=1;startSize=26;horizontalStack=0;resizeParent=1;resizeLast=0;collapsible=1;marginBottom=0;rounded=0;shadow=0;strokeWidth=1;" parent="1" vertex="1">
          <mxGeometry x="62.46153846153847" y="19.948312557008208" width="142.77" height="161.94405594405595" as="geometry">
            <mxRectangle x="130" y="380" width="160" height="26" as="alternateBounds" />
          </mxGeometry>
        </mxCell>
        <mxCell id="pnGU21rXxWi9947GBNGK-136" value="" style="line;html=1;strokeWidth=1;align=left;verticalAlign=middle;spacingTop=-1;spacingLeft=3;spacingRight=3;rotatable=0;labelPosition=right;points=[];portConstraint=eastwest;" parent="pnGU21rXxWi9947GBNGK-135" vertex="1">
          <mxGeometry y="26" width="142.77" height="7.880814837336576" as="geometry" />
        </mxCell>
        <mxCell id="pnGU21rXxWi9947GBNGK-137" value="+ Update()" style="text;align=left;verticalAlign=top;spacingLeft=4;spacingRight=4;overflow=hidden;rotatable=0;points=[[0,0.5],[1,0.5]];portConstraint=eastwest;fontStyle=4" parent="pnGU21rXxWi9947GBNGK-135" vertex="1">
          <mxGeometry y="33.88081483733657" width="142.77" height="25.61264822134387" as="geometry" />
        </mxCell>
        <mxCell id="pnGU21rXxWi9947GBNGK-138" value="+ Create()" style="text;align=left;verticalAlign=top;spacingLeft=4;spacingRight=4;overflow=hidden;rotatable=0;points=[[0,0.5],[1,0.5]];portConstraint=eastwest;fontStyle=4" parent="pnGU21rXxWi9947GBNGK-135" vertex="1">
          <mxGeometry y="59.49346305868045" width="142.77" height="25.61264822134387" as="geometry" />
        </mxCell>
        <mxCell id="pnGU21rXxWi9947GBNGK-139" value="+ ListSportsmen()" style="text;align=left;verticalAlign=top;spacingLeft=4;spacingRight=4;overflow=hidden;rotatable=0;points=[[0,0.5],[1,0.5]];portConstraint=eastwest;fontStyle=4" parent="pnGU21rXxWi9947GBNGK-135" vertex="1">
          <mxGeometry y="85.10611128002432" width="142.77" height="25.61264822134387" as="geometry" />
        </mxCell>
        <mxCell id="pnGU21rXxWi9947GBNGK-140" value="+ GetSportsmanByID()" style="text;align=left;verticalAlign=top;spacingLeft=4;spacingRight=4;overflow=hidden;rotatable=0;points=[[0,0.5],[1,0.5]];portConstraint=eastwest;fontStyle=4" parent="pnGU21rXxWi9947GBNGK-135" vertex="1">
          <mxGeometry y="110.7187595013682" width="142.77" height="25.61264822134387" as="geometry" />
        </mxCell>
        <mxCell id="i6aTKDcYkG1T6r6kzWJ1-24" value="+ ListResults()" style="text;align=left;verticalAlign=top;spacingLeft=4;spacingRight=4;overflow=hidden;rotatable=0;points=[[0,0.5],[1,0.5]];portConstraint=eastwest;fontStyle=4" parent="pnGU21rXxWi9947GBNGK-135" vertex="1">
          <mxGeometry y="136.33140772271207" width="142.77" height="23.67" as="geometry" />
        </mxCell>
        <mxCell id="pnGU21rXxWi9947GBNGK-203" value="" style="group" parent="1" vertex="1" connectable="0">
          <mxGeometry x="240.92307692307693" y="19.948312557008208" width="142.76923076923077" height="571.3590757069018" as="geometry" />
        </mxCell>
        <mxCell id="pnGU21rXxWi9947GBNGK-163" style="edgeStyle=orthogonalEdgeStyle;rounded=0;orthogonalLoop=1;jettySize=auto;html=1;exitX=0.5;exitY=0;exitDx=0;exitDy=0;entryX=0.5;entryY=1;entryDx=0;entryDy=0;dashed=1;strokeColor=default;align=center;verticalAlign=middle;fontFamily=Helvetica;fontSize=11;fontColor=default;labelBackgroundColor=default;endArrow=block;endFill=0;" parent="pnGU21rXxWi9947GBNGK-203" source="pnGU21rXxWi9947GBNGK-165" edge="1">
          <mxGeometry relative="1" as="geometry">
            <mxPoint x="71.38461538461539" y="137.91425965339008" as="targetPoint" />
          </mxGeometry>
        </mxCell>
        <mxCell id="pnGU21rXxWi9947GBNGK-164" style="edgeStyle=orthogonalEdgeStyle;rounded=0;orthogonalLoop=1;jettySize=auto;html=1;exitX=0.5;exitY=1;exitDx=0;exitDy=0;dashed=1;strokeColor=default;align=center;verticalAlign=middle;fontFamily=Helvetica;fontSize=11;fontColor=default;labelBackgroundColor=default;endArrow=open;endFill=0;" parent="pnGU21rXxWi9947GBNGK-203" source="pnGU21rXxWi9947GBNGK-165" target="pnGU21rXxWi9947GBNGK-171" edge="1">
          <mxGeometry relative="1" as="geometry" />
        </mxCell>
        <mxCell id="pnGU21rXxWi9947GBNGK-165" value="CoachService" style="swimlane;fontStyle=1;align=center;verticalAlign=top;childLayout=stackLayout;horizontal=1;startSize=26;horizontalStack=0;resizeParent=1;resizeLast=0;collapsible=1;marginBottom=0;rounded=0;shadow=0;strokeWidth=1;" parent="pnGU21rXxWi9947GBNGK-203" vertex="1">
          <mxGeometry y="198.99057464274856" width="142.76923076923077" height="137.91425965339008" as="geometry">
            <mxRectangle x="130" y="380" width="160" height="26" as="alternateBounds" />
          </mxGeometry>
        </mxCell>
        <mxCell id="pnGU21rXxWi9947GBNGK-166" value="" style="line;html=1;strokeWidth=1;align=left;verticalAlign=middle;spacingTop=-1;spacingLeft=3;spacingRight=3;rotatable=0;labelPosition=right;points=[];portConstraint=eastwest;" parent="pnGU21rXxWi9947GBNGK-165" vertex="1">
          <mxGeometry y="26" width="142.76923076923077" height="7.880814837336576" as="geometry" />
        </mxCell>
        <mxCell id="pnGU21rXxWi9947GBNGK-167" value="+ Update()" style="text;align=left;verticalAlign=top;spacingLeft=4;spacingRight=4;overflow=hidden;rotatable=0;points=[[0,0.5],[1,0.5]];portConstraint=eastwest;fontStyle=4" parent="pnGU21rXxWi9947GBNGK-165" vertex="1">
          <mxGeometry y="33.88081483733657" width="142.76923076923077" height="25.61264822134387" as="geometry" />
        </mxCell>
        <mxCell id="pnGU21rXxWi9947GBNGK-168" value="+ Create()" style="text;align=left;verticalAlign=top;spacingLeft=4;spacingRight=4;overflow=hidden;rotatable=0;points=[[0,0.5],[1,0.5]];portConstraint=eastwest;fontStyle=4" parent="pnGU21rXxWi9947GBNGK-165" vertex="1">
          <mxGeometry y="59.49346305868045" width="142.76923076923077" height="25.61264822134387" as="geometry" />
        </mxCell>
        <mxCell id="pnGU21rXxWi9947GBNGK-169" value="+ ListCoaches()" style="text;align=left;verticalAlign=top;spacingLeft=4;spacingRight=4;overflow=hidden;rotatable=0;points=[[0,0.5],[1,0.5]];portConstraint=eastwest;fontStyle=4" parent="pnGU21rXxWi9947GBNGK-165" vertex="1">
          <mxGeometry y="85.10611128002432" width="142.76923076923077" height="25.61264822134387" as="geometry" />
        </mxCell>
        <mxCell id="pnGU21rXxWi9947GBNGK-170" value="+ GetCoachByID()" style="text;align=left;verticalAlign=top;spacingLeft=4;spacingRight=4;overflow=hidden;rotatable=0;points=[[0,0.5],[1,0.5]];portConstraint=eastwest;fontStyle=4" parent="pnGU21rXxWi9947GBNGK-165" vertex="1">
          <mxGeometry y="110.7187595013682" width="142.76923076923077" height="25.61264822134387" as="geometry" />
        </mxCell>
        <mxCell id="pnGU21rXxWi9947GBNGK-171" value="ICoachRepository" style="swimlane;fontStyle=1;align=center;verticalAlign=top;childLayout=stackLayout;horizontal=1;startSize=26;horizontalStack=0;resizeParent=1;resizeLast=0;collapsible=1;marginBottom=0;rounded=0;shadow=0;strokeWidth=1;" parent="pnGU21rXxWi9947GBNGK-203" vertex="1">
          <mxGeometry y="435.4150197628458" width="142.76923076923077" height="136.33140772271207" as="geometry">
            <mxRectangle x="130" y="380" width="160" height="26" as="alternateBounds" />
          </mxGeometry>
        </mxCell>
        <mxCell id="pnGU21rXxWi9947GBNGK-172" value="" style="line;html=1;strokeWidth=1;align=left;verticalAlign=middle;spacingTop=-1;spacingLeft=3;spacingRight=3;rotatable=0;labelPosition=right;points=[];portConstraint=eastwest;" parent="pnGU21rXxWi9947GBNGK-171" vertex="1">
          <mxGeometry y="26" width="142.76923076923077" height="7.880814837336577" as="geometry" />
        </mxCell>
        <mxCell id="pnGU21rXxWi9947GBNGK-173" value="+ Update()" style="text;align=left;verticalAlign=top;spacingLeft=4;spacingRight=4;overflow=hidden;rotatable=0;points=[[0,0.5],[1,0.5]];portConstraint=eastwest;fontStyle=4" parent="pnGU21rXxWi9947GBNGK-171" vertex="1">
          <mxGeometry y="33.88081483733658" width="142.76923076923077" height="25.612648221343875" as="geometry" />
        </mxCell>
        <mxCell id="pnGU21rXxWi9947GBNGK-174" value="+ Create()" style="text;align=left;verticalAlign=top;spacingLeft=4;spacingRight=4;overflow=hidden;rotatable=0;points=[[0,0.5],[1,0.5]];portConstraint=eastwest;fontStyle=4" parent="pnGU21rXxWi9947GBNGK-171" vertex="1">
          <mxGeometry y="59.493463058680454" width="142.76923076923077" height="25.612648221343875" as="geometry" />
        </mxCell>
        <mxCell id="pnGU21rXxWi9947GBNGK-175" value="+ ListCoaches()" style="text;align=left;verticalAlign=top;spacingLeft=4;spacingRight=4;overflow=hidden;rotatable=0;points=[[0,0.5],[1,0.5]];portConstraint=eastwest;fontStyle=4" parent="pnGU21rXxWi9947GBNGK-171" vertex="1">
          <mxGeometry y="85.10611128002432" width="142.76923076923077" height="25.612648221343875" as="geometry" />
        </mxCell>
        <mxCell id="pnGU21rXxWi9947GBNGK-176" value="+ GetCoachByID()" style="text;align=left;verticalAlign=top;spacingLeft=4;spacingRight=4;overflow=hidden;rotatable=0;points=[[0,0.5],[1,0.5]];portConstraint=eastwest;fontStyle=4" parent="pnGU21rXxWi9947GBNGK-171" vertex="1">
          <mxGeometry y="110.7187595013682" width="142.76923076923077" height="25.612648221343875" as="geometry" />
        </mxCell>
        <mxCell id="pnGU21rXxWi9947GBNGK-177" value="ICoachService" style="swimlane;fontStyle=1;align=center;verticalAlign=top;childLayout=stackLayout;horizontal=1;startSize=26;horizontalStack=0;resizeParent=1;resizeLast=0;collapsible=1;marginBottom=0;rounded=0;shadow=0;strokeWidth=1;" parent="pnGU21rXxWi9947GBNGK-203" vertex="1">
          <mxGeometry width="142.76923076923077" height="137.91425965339008" as="geometry">
            <mxRectangle x="130" y="380" width="160" height="26" as="alternateBounds" />
          </mxGeometry>
        </mxCell>
        <mxCell id="pnGU21rXxWi9947GBNGK-178" value="" style="line;html=1;strokeWidth=1;align=left;verticalAlign=middle;spacingTop=-1;spacingLeft=3;spacingRight=3;rotatable=0;labelPosition=right;points=[];portConstraint=eastwest;" parent="pnGU21rXxWi9947GBNGK-177" vertex="1">
          <mxGeometry y="26" width="142.76923076923077" height="7.880814837336576" as="geometry" />
        </mxCell>
        <mxCell id="pnGU21rXxWi9947GBNGK-179" value="+ Update()" style="text;align=left;verticalAlign=top;spacingLeft=4;spacingRight=4;overflow=hidden;rotatable=0;points=[[0,0.5],[1,0.5]];portConstraint=eastwest;fontStyle=4" parent="pnGU21rXxWi9947GBNGK-177" vertex="1">
          <mxGeometry y="33.88081483733657" width="142.76923076923077" height="25.61264822134387" as="geometry" />
        </mxCell>
        <mxCell id="pnGU21rXxWi9947GBNGK-180" value="+ Create()" style="text;align=left;verticalAlign=top;spacingLeft=4;spacingRight=4;overflow=hidden;rotatable=0;points=[[0,0.5],[1,0.5]];portConstraint=eastwest;fontStyle=4" parent="pnGU21rXxWi9947GBNGK-177" vertex="1">
          <mxGeometry y="59.49346305868045" width="142.76923076923077" height="25.61264822134387" as="geometry" />
        </mxCell>
        <mxCell id="pnGU21rXxWi9947GBNGK-181" value="+ ListCoaches()" style="text;align=left;verticalAlign=top;spacingLeft=4;spacingRight=4;overflow=hidden;rotatable=0;points=[[0,0.5],[1,0.5]];portConstraint=eastwest;fontStyle=4" parent="pnGU21rXxWi9947GBNGK-177" vertex="1">
          <mxGeometry y="85.10611128002432" width="142.76923076923077" height="25.61264822134387" as="geometry" />
        </mxCell>
        <mxCell id="pnGU21rXxWi9947GBNGK-182" value="+ GetCoachByID()" style="text;align=left;verticalAlign=top;spacingLeft=4;spacingRight=4;overflow=hidden;rotatable=0;points=[[0,0.5],[1,0.5]];portConstraint=eastwest;fontStyle=4" parent="pnGU21rXxWi9947GBNGK-177" vertex="1">
          <mxGeometry y="110.7187595013682" width="142.76923076923077" height="25.61264822134387" as="geometry" />
        </mxCell>
        <mxCell id="pnGU21rXxWi9947GBNGK-204" value="" style="group" parent="1" vertex="1" connectable="0">
          <mxGeometry x="419.38" y="19.95" width="150.62" height="580.05" as="geometry" />
        </mxCell>
        <mxCell id="pnGU21rXxWi9947GBNGK-183" style="edgeStyle=orthogonalEdgeStyle;rounded=0;orthogonalLoop=1;jettySize=auto;html=1;exitX=0.5;exitY=0;exitDx=0;exitDy=0;entryX=0.5;entryY=1;entryDx=0;entryDy=0;dashed=1;strokeColor=default;align=center;verticalAlign=middle;fontFamily=Helvetica;fontSize=11;fontColor=default;labelBackgroundColor=default;endArrow=block;endFill=0;" parent="pnGU21rXxWi9947GBNGK-204" source="pnGU21rXxWi9947GBNGK-185" edge="1">
          <mxGeometry relative="1" as="geometry">
            <mxPoint x="75.30959423710001" y="132.13607806308727" as="targetPoint" />
          </mxGeometry>
        </mxCell>
        <mxCell id="pnGU21rXxWi9947GBNGK-184" style="edgeStyle=orthogonalEdgeStyle;rounded=0;orthogonalLoop=1;jettySize=auto;html=1;exitX=0.5;exitY=1;exitDx=0;exitDy=0;dashed=1;strokeColor=default;align=center;verticalAlign=middle;fontFamily=Helvetica;fontSize=11;fontColor=default;labelBackgroundColor=default;endArrow=open;endFill=0;" parent="pnGU21rXxWi9947GBNGK-204" source="pnGU21rXxWi9947GBNGK-185" target="pnGU21rXxWi9947GBNGK-191" edge="1">
          <mxGeometry relative="1" as="geometry" />
        </mxCell>
        <mxCell id="pnGU21rXxWi9947GBNGK-185" value="ResultService" style="swimlane;fontStyle=1;align=center;verticalAlign=top;childLayout=stackLayout;horizontal=1;startSize=26;horizontalStack=0;resizeParent=1;resizeLast=0;collapsible=1;marginBottom=0;rounded=0;shadow=0;strokeWidth=1;" parent="pnGU21rXxWi9947GBNGK-204" vertex="1">
          <mxGeometry y="190.6534840624545" width="150.62" height="132.13607806308727" as="geometry">
            <mxRectangle x="130" y="380" width="160" height="26" as="alternateBounds" />
          </mxGeometry>
        </mxCell>
        <mxCell id="pnGU21rXxWi9947GBNGK-186" value="" style="line;html=1;strokeWidth=1;align=left;verticalAlign=middle;spacingTop=-1;spacingLeft=3;spacingRight=3;rotatable=0;labelPosition=right;points=[];portConstraint=eastwest;" parent="pnGU21rXxWi9947GBNGK-185" vertex="1">
          <mxGeometry y="26" width="150.62" height="7.550633032176416" as="geometry" />
        </mxCell>
        <mxCell id="pnGU21rXxWi9947GBNGK-187" value="+ Update()" style="text;align=left;verticalAlign=top;spacingLeft=4;spacingRight=4;overflow=hidden;rotatable=0;points=[[0,0.5],[1,0.5]];portConstraint=eastwest;fontStyle=4" parent="pnGU21rXxWi9947GBNGK-185" vertex="1">
          <mxGeometry y="33.550633032176414" width="150.62" height="24.53955735457335" as="geometry" />
        </mxCell>
        <mxCell id="pnGU21rXxWi9947GBNGK-188" value="+ Create()" style="text;align=left;verticalAlign=top;spacingLeft=4;spacingRight=4;overflow=hidden;rotatable=0;points=[[0,0.5],[1,0.5]];portConstraint=eastwest;fontStyle=4" parent="pnGU21rXxWi9947GBNGK-185" vertex="1">
          <mxGeometry y="58.09019038674977" width="150.62" height="24.53955735457335" as="geometry" />
        </mxCell>
        <mxCell id="pnGU21rXxWi9947GBNGK-189" value="+ ListResults()" style="text;align=left;verticalAlign=top;spacingLeft=4;spacingRight=4;overflow=hidden;rotatable=0;points=[[0,0.5],[1,0.5]];portConstraint=eastwest;fontStyle=4" parent="pnGU21rXxWi9947GBNGK-185" vertex="1">
          <mxGeometry y="82.62974774132311" width="150.62" height="24.53955735457335" as="geometry" />
        </mxCell>
        <mxCell id="pnGU21rXxWi9947GBNGK-190" value="+ GetResultByID()" style="text;align=left;verticalAlign=top;spacingLeft=4;spacingRight=4;overflow=hidden;rotatable=0;points=[[0,0.5],[1,0.5]];portConstraint=eastwest;fontStyle=4" parent="pnGU21rXxWi9947GBNGK-185" vertex="1">
          <mxGeometry y="107.16930509589646" width="150.62" height="18.472227538029642" as="geometry" />
        </mxCell>
        <mxCell id="pnGU21rXxWi9947GBNGK-191" value="IResultRepository" style="swimlane;fontStyle=1;align=center;verticalAlign=top;childLayout=stackLayout;horizontal=1;startSize=26;horizontalStack=0;resizeParent=1;resizeLast=0;collapsible=1;marginBottom=0;rounded=0;shadow=0;strokeWidth=1;" parent="pnGU21rXxWi9947GBNGK-204" vertex="1">
          <mxGeometry y="417.172475027747" width="150.62" height="162.8788737157307" as="geometry">
            <mxRectangle x="130" y="380" width="160" height="26" as="alternateBounds" />
          </mxGeometry>
        </mxCell>
        <mxCell id="pnGU21rXxWi9947GBNGK-192" value="" style="line;html=1;strokeWidth=1;align=left;verticalAlign=middle;spacingTop=-1;spacingLeft=3;spacingRight=3;rotatable=0;labelPosition=right;points=[];portConstraint=eastwest;" parent="pnGU21rXxWi9947GBNGK-191" vertex="1">
          <mxGeometry y="26" width="150.62" height="7.5506330321764175" as="geometry" />
        </mxCell>
        <mxCell id="pnGU21rXxWi9947GBNGK-193" value="+ Update()" style="text;align=left;verticalAlign=top;spacingLeft=4;spacingRight=4;overflow=hidden;rotatable=0;points=[[0,0.5],[1,0.5]];portConstraint=eastwest;fontStyle=4" parent="pnGU21rXxWi9947GBNGK-191" vertex="1">
          <mxGeometry y="33.55063303217642" width="150.62" height="24.539557354573358" as="geometry" />
        </mxCell>
        <mxCell id="pnGU21rXxWi9947GBNGK-194" value="+ Create()" style="text;align=left;verticalAlign=top;spacingLeft=4;spacingRight=4;overflow=hidden;rotatable=0;points=[[0,0.5],[1,0.5]];portConstraint=eastwest;fontStyle=4" parent="pnGU21rXxWi9947GBNGK-191" vertex="1">
          <mxGeometry y="58.09019038674978" width="150.62" height="24.539557354573358" as="geometry" />
        </mxCell>
        <mxCell id="pnGU21rXxWi9947GBNGK-195" value="+ ListResults()" style="text;align=left;verticalAlign=top;spacingLeft=4;spacingRight=4;overflow=hidden;rotatable=0;points=[[0,0.5],[1,0.5]];portConstraint=eastwest;fontStyle=4" parent="pnGU21rXxWi9947GBNGK-191" vertex="1">
          <mxGeometry y="82.62974774132314" width="150.62" height="24.539557354573358" as="geometry" />
        </mxCell>
        <mxCell id="pnGU21rXxWi9947GBNGK-196" value="+ GetResultByID()" style="text;align=left;verticalAlign=top;spacingLeft=4;spacingRight=4;overflow=hidden;rotatable=0;points=[[0,0.5],[1,0.5]];portConstraint=eastwest;fontStyle=4" parent="pnGU21rXxWi9947GBNGK-191" vertex="1">
          <mxGeometry y="107.1693050958965" width="150.62" height="24.539557354573358" as="geometry" />
        </mxCell>
        <mxCell id="BN3uKd5QlvXh90SFG_0V-1" value="+ ListSportsmanResults()" style="text;align=left;verticalAlign=top;spacingLeft=4;spacingRight=4;overflow=hidden;rotatable=0;points=[[0,0.5],[1,0.5]];portConstraint=eastwest;fontStyle=4" vertex="1" parent="pnGU21rXxWi9947GBNGK-191">
          <mxGeometry y="131.70886245046987" width="150.62" height="22.678300094666064" as="geometry" />
        </mxCell>
        <mxCell id="pnGU21rXxWi9947GBNGK-197" value="IResultService" style="swimlane;fontStyle=1;align=center;verticalAlign=top;childLayout=stackLayout;horizontal=1;startSize=26;horizontalStack=0;resizeParent=1;resizeLast=0;collapsible=1;marginBottom=0;rounded=0;shadow=0;strokeWidth=1;" parent="pnGU21rXxWi9947GBNGK-204" vertex="1">
          <mxGeometry width="150.61918847420003" height="132.13607806308727" as="geometry">
            <mxRectangle x="130" y="380" width="160" height="26" as="alternateBounds" />
          </mxGeometry>
        </mxCell>
        <mxCell id="pnGU21rXxWi9947GBNGK-198" value="" style="line;html=1;strokeWidth=1;align=left;verticalAlign=middle;spacingTop=-1;spacingLeft=3;spacingRight=3;rotatable=0;labelPosition=right;points=[];portConstraint=eastwest;" parent="pnGU21rXxWi9947GBNGK-197" vertex="1">
          <mxGeometry y="26" width="150.61918847420003" height="7.550633032176416" as="geometry" />
        </mxCell>
        <mxCell id="pnGU21rXxWi9947GBNGK-199" value="+ Update()" style="text;align=left;verticalAlign=top;spacingLeft=4;spacingRight=4;overflow=hidden;rotatable=0;points=[[0,0.5],[1,0.5]];portConstraint=eastwest;fontStyle=4" parent="pnGU21rXxWi9947GBNGK-197" vertex="1">
          <mxGeometry y="33.550633032176414" width="150.61918847420003" height="24.53955735457335" as="geometry" />
        </mxCell>
        <mxCell id="pnGU21rXxWi9947GBNGK-200" value="+ Create()" style="text;align=left;verticalAlign=top;spacingLeft=4;spacingRight=4;overflow=hidden;rotatable=0;points=[[0,0.5],[1,0.5]];portConstraint=eastwest;fontStyle=4" parent="pnGU21rXxWi9947GBNGK-197" vertex="1">
          <mxGeometry y="58.09019038674977" width="150.61918847420003" height="24.53955735457335" as="geometry" />
        </mxCell>
        <mxCell id="pnGU21rXxWi9947GBNGK-201" value="+ ListResults()" style="text;align=left;verticalAlign=top;spacingLeft=4;spacingRight=4;overflow=hidden;rotatable=0;points=[[0,0.5],[1,0.5]];portConstraint=eastwest;fontStyle=4" parent="pnGU21rXxWi9947GBNGK-197" vertex="1">
          <mxGeometry y="82.62974774132311" width="150.61918847420003" height="24.53955735457335" as="geometry" />
        </mxCell>
        <mxCell id="pnGU21rXxWi9947GBNGK-202" value="+ GetResultByID()" style="text;align=left;verticalAlign=top;spacingLeft=4;spacingRight=4;overflow=hidden;rotatable=0;points=[[0,0.5],[1,0.5]];portConstraint=eastwest;fontStyle=4" parent="pnGU21rXxWi9947GBNGK-197" vertex="1">
          <mxGeometry y="107.16930509589646" width="150.61918847420003" height="24.53955735457335" as="geometry" />
        </mxCell>
        <mxCell id="pnGU21rXxWi9947GBNGK-282" value="" style="group" parent="1" vertex="1" connectable="0">
          <mxGeometry x="954.7692307692308" y="19.70203709334144" width="142.76923076923077" height="561.508057160231" as="geometry" />
        </mxCell>
        <mxCell id="pnGU21rXxWi9947GBNGK-265" style="edgeStyle=orthogonalEdgeStyle;rounded=0;orthogonalLoop=1;jettySize=auto;html=1;exitX=0.5;exitY=0;exitDx=0;exitDy=0;entryX=0.5;entryY=1;entryDx=0;entryDy=0;dashed=1;strokeColor=default;align=center;verticalAlign=middle;fontFamily=Helvetica;fontSize=11;fontColor=default;labelBackgroundColor=default;endArrow=block;endFill=0;" parent="pnGU21rXxWi9947GBNGK-282" source="pnGU21rXxWi9947GBNGK-267" target="pnGU21rXxWi9947GBNGK-277" edge="1">
          <mxGeometry relative="1" as="geometry" />
        </mxCell>
        <mxCell id="pnGU21rXxWi9947GBNGK-266" style="edgeStyle=orthogonalEdgeStyle;rounded=0;orthogonalLoop=1;jettySize=auto;html=1;exitX=0.5;exitY=1;exitDx=0;exitDy=0;dashed=1;strokeColor=default;align=center;verticalAlign=middle;fontFamily=Helvetica;fontSize=11;fontColor=default;labelBackgroundColor=default;endArrow=open;endFill=0;" parent="pnGU21rXxWi9947GBNGK-282" source="pnGU21rXxWi9947GBNGK-267" target="pnGU21rXxWi9947GBNGK-272" edge="1">
          <mxGeometry relative="1" as="geometry" />
        </mxCell>
        <mxCell id="pnGU21rXxWi9947GBNGK-267" value="UserService" style="swimlane;fontStyle=1;align=center;verticalAlign=top;childLayout=stackLayout;horizontal=1;startSize=26;horizontalStack=0;resizeParent=1;resizeLast=0;collapsible=1;marginBottom=0;rounded=0;shadow=0;strokeWidth=1;" parent="pnGU21rXxWi9947GBNGK-282" vertex="1">
          <mxGeometry y="197.0203709334144" width="142.76923076923077" height="110.7187595013682" as="geometry">
            <mxRectangle x="130" y="380" width="160" height="26" as="alternateBounds" />
          </mxGeometry>
        </mxCell>
        <mxCell id="pnGU21rXxWi9947GBNGK-268" value="" style="line;html=1;strokeWidth=1;align=left;verticalAlign=middle;spacingTop=-1;spacingLeft=3;spacingRight=3;rotatable=0;labelPosition=right;points=[];portConstraint=eastwest;" parent="pnGU21rXxWi9947GBNGK-267" vertex="1">
          <mxGeometry y="26" width="142.76923076923077" height="7.880814837336577" as="geometry" />
        </mxCell>
        <mxCell id="pnGU21rXxWi9947GBNGK-269" value="+ Login()" style="text;align=left;verticalAlign=top;spacingLeft=4;spacingRight=4;overflow=hidden;rotatable=0;points=[[0,0.5],[1,0.5]];portConstraint=eastwest;fontStyle=4" parent="pnGU21rXxWi9947GBNGK-267" vertex="1">
          <mxGeometry y="33.88081483733658" width="142.76923076923077" height="25.612648221343875" as="geometry" />
        </mxCell>
        <mxCell id="pnGU21rXxWi9947GBNGK-270" value="+ Register()" style="text;align=left;verticalAlign=top;spacingLeft=4;spacingRight=4;overflow=hidden;rotatable=0;points=[[0,0.5],[1,0.5]];portConstraint=eastwest;fontStyle=4" parent="pnGU21rXxWi9947GBNGK-267" vertex="1">
          <mxGeometry y="59.493463058680454" width="142.76923076923077" height="25.612648221343875" as="geometry" />
        </mxCell>
        <mxCell id="pnGU21rXxWi9947GBNGK-271" value="+ GetUserByID()" style="text;align=left;verticalAlign=top;spacingLeft=4;spacingRight=4;overflow=hidden;rotatable=0;points=[[0,0.5],[1,0.5]];portConstraint=eastwest;fontStyle=4" parent="pnGU21rXxWi9947GBNGK-267" vertex="1">
          <mxGeometry y="85.10611128002432" width="142.76923076923077" height="25.612648221343875" as="geometry" />
        </mxCell>
        <mxCell id="pnGU21rXxWi9947GBNGK-272" value="IUserRepository" style="swimlane;fontStyle=1;align=center;verticalAlign=top;childLayout=stackLayout;horizontal=1;startSize=26;horizontalStack=0;resizeParent=1;resizeLast=0;collapsible=1;marginBottom=0;rounded=0;shadow=0;strokeWidth=1;" parent="pnGU21rXxWi9947GBNGK-282" vertex="1">
          <mxGeometry y="433.44481605351166" width="142.76923076923077" height="136.33140772271207" as="geometry">
            <mxRectangle x="130" y="380" width="160" height="26" as="alternateBounds" />
          </mxGeometry>
        </mxCell>
        <mxCell id="pnGU21rXxWi9947GBNGK-273" value="" style="line;html=1;strokeWidth=1;align=left;verticalAlign=middle;spacingTop=-1;spacingLeft=3;spacingRight=3;rotatable=0;labelPosition=right;points=[];portConstraint=eastwest;" parent="pnGU21rXxWi9947GBNGK-272" vertex="1">
          <mxGeometry y="26" width="142.76923076923077" height="7.880814837336577" as="geometry" />
        </mxCell>
        <mxCell id="pnGU21rXxWi9947GBNGK-274" value="+ Create()" style="text;align=left;verticalAlign=top;spacingLeft=4;spacingRight=4;overflow=hidden;rotatable=0;points=[[0,0.5],[1,0.5]];portConstraint=eastwest;fontStyle=4" parent="pnGU21rXxWi9947GBNGK-272" vertex="1">
          <mxGeometry y="33.88081483733658" width="142.76923076923077" height="25.612648221343875" as="geometry" />
        </mxCell>
        <mxCell id="pnGU21rXxWi9947GBNGK-275" value="+ Update()" style="text;align=left;verticalAlign=top;spacingLeft=4;spacingRight=4;overflow=hidden;rotatable=0;points=[[0,0.5],[1,0.5]];portConstraint=eastwest;fontStyle=4" parent="pnGU21rXxWi9947GBNGK-272" vertex="1">
          <mxGeometry y="59.493463058680454" width="142.76923076923077" height="25.612648221343875" as="geometry" />
        </mxCell>
        <mxCell id="pnGU21rXxWi9947GBNGK-276" value="+ GetUserByID()" style="text;align=left;verticalAlign=top;spacingLeft=4;spacingRight=4;overflow=hidden;rotatable=0;points=[[0,0.5],[1,0.5]];portConstraint=eastwest;fontStyle=4" parent="pnGU21rXxWi9947GBNGK-272" vertex="1">
          <mxGeometry y="85.10611128002432" width="142.76923076923077" height="25.612648221343875" as="geometry" />
        </mxCell>
        <mxCell id="BN3uKd5QlvXh90SFG_0V-2" value="+ GetUserByEmail()" style="text;align=left;verticalAlign=top;spacingLeft=4;spacingRight=4;overflow=hidden;rotatable=0;points=[[0,0.5],[1,0.5]];portConstraint=eastwest;fontStyle=4" vertex="1" parent="pnGU21rXxWi9947GBNGK-272">
          <mxGeometry y="110.7187595013682" width="142.76923076923077" height="25.612648221343875" as="geometry" />
        </mxCell>
        <mxCell id="pnGU21rXxWi9947GBNGK-277" value="IUserService" style="swimlane;fontStyle=1;align=center;verticalAlign=top;childLayout=stackLayout;horizontal=1;startSize=26;horizontalStack=0;resizeParent=1;resizeLast=0;collapsible=1;marginBottom=0;rounded=0;shadow=0;strokeWidth=1;" parent="pnGU21rXxWi9947GBNGK-282" vertex="1">
          <mxGeometry width="142.76923076923077" height="118.21222256004864" as="geometry">
            <mxRectangle x="130" y="380" width="160" height="26" as="alternateBounds" />
          </mxGeometry>
        </mxCell>
        <mxCell id="pnGU21rXxWi9947GBNGK-278" value="" style="line;html=1;strokeWidth=1;align=left;verticalAlign=middle;spacingTop=-1;spacingLeft=3;spacingRight=3;rotatable=0;labelPosition=right;points=[];portConstraint=eastwest;" parent="pnGU21rXxWi9947GBNGK-277" vertex="1">
          <mxGeometry y="26" width="142.76923076923077" height="7.880814837336576" as="geometry" />
        </mxCell>
        <mxCell id="pnGU21rXxWi9947GBNGK-279" value="+ Login()" style="text;align=left;verticalAlign=top;spacingLeft=4;spacingRight=4;overflow=hidden;rotatable=0;points=[[0,0.5],[1,0.5]];portConstraint=eastwest;fontStyle=4" parent="pnGU21rXxWi9947GBNGK-277" vertex="1">
          <mxGeometry y="33.88081483733657" width="142.76923076923077" height="25.61264822134387" as="geometry" />
        </mxCell>
        <mxCell id="pnGU21rXxWi9947GBNGK-280" value="+ Register()" style="text;align=left;verticalAlign=top;spacingLeft=4;spacingRight=4;overflow=hidden;rotatable=0;points=[[0,0.5],[1,0.5]];portConstraint=eastwest;fontStyle=4" parent="pnGU21rXxWi9947GBNGK-277" vertex="1">
          <mxGeometry y="59.49346305868045" width="142.76923076923077" height="25.61264822134387" as="geometry" />
        </mxCell>
        <mxCell id="pnGU21rXxWi9947GBNGK-281" value="+ GetUserByID()" style="text;align=left;verticalAlign=top;spacingLeft=4;spacingRight=4;overflow=hidden;rotatable=0;points=[[0,0.5],[1,0.5]];portConstraint=eastwest;fontStyle=4" parent="pnGU21rXxWi9947GBNGK-277" vertex="1">
          <mxGeometry y="85.10611128002432" width="142.76923076923077" height="25.61264822134387" as="geometry" />
        </mxCell>
        <mxCell id="K8hFYXdYiZ7QDnOWog-U-1" value="SportsmanRepository" style="swimlane;fontStyle=1;align=center;verticalAlign=top;childLayout=stackLayout;horizontal=1;startSize=26;horizontalStack=0;resizeParent=1;resizeLast=0;collapsible=1;marginBottom=0;rounded=0;shadow=0;strokeWidth=1;" parent="1" vertex="1">
          <mxGeometry x="62.46153846153847" y="652.1374277896017" width="142.76923076923077" height="160.0014077227121" as="geometry">
            <mxRectangle x="130" y="380" width="160" height="26" as="alternateBounds" />
          </mxGeometry>
        </mxCell>
        <mxCell id="K8hFYXdYiZ7QDnOWog-U-2" value="" style="line;html=1;strokeWidth=1;align=left;verticalAlign=middle;spacingTop=-1;spacingLeft=3;spacingRight=3;rotatable=0;labelPosition=right;points=[];portConstraint=eastwest;" parent="K8hFYXdYiZ7QDnOWog-U-1" vertex="1">
          <mxGeometry y="26" width="142.76923076923077" height="7.880814837336577" as="geometry" />
        </mxCell>
        <mxCell id="K8hFYXdYiZ7QDnOWog-U-3" value="+ Update()" style="text;align=left;verticalAlign=top;spacingLeft=4;spacingRight=4;overflow=hidden;rotatable=0;points=[[0,0.5],[1,0.5]];portConstraint=eastwest;fontStyle=4" parent="K8hFYXdYiZ7QDnOWog-U-1" vertex="1">
          <mxGeometry y="33.88081483733658" width="142.76923076923077" height="25.612648221343875" as="geometry" />
        </mxCell>
        <mxCell id="K8hFYXdYiZ7QDnOWog-U-4" value="+ Create()" style="text;align=left;verticalAlign=top;spacingLeft=4;spacingRight=4;overflow=hidden;rotatable=0;points=[[0,0.5],[1,0.5]];portConstraint=eastwest;fontStyle=4" parent="K8hFYXdYiZ7QDnOWog-U-1" vertex="1">
          <mxGeometry y="59.493463058680454" width="142.76923076923077" height="25.612648221343875" as="geometry" />
        </mxCell>
        <mxCell id="K8hFYXdYiZ7QDnOWog-U-5" value="+ ListSportsmen()" style="text;align=left;verticalAlign=top;spacingLeft=4;spacingRight=4;overflow=hidden;rotatable=0;points=[[0,0.5],[1,0.5]];portConstraint=eastwest;fontStyle=4" parent="K8hFYXdYiZ7QDnOWog-U-1" vertex="1">
          <mxGeometry y="85.10611128002432" width="142.76923076923077" height="25.612648221343875" as="geometry" />
        </mxCell>
        <mxCell id="K8hFYXdYiZ7QDnOWog-U-6" value="+ GetSportsmanByID()" style="text;align=left;verticalAlign=top;spacingLeft=4;spacingRight=4;overflow=hidden;rotatable=0;points=[[0,0.5],[1,0.5]];portConstraint=eastwest;fontStyle=4" parent="K8hFYXdYiZ7QDnOWog-U-1" vertex="1">
          <mxGeometry y="110.7187595013682" width="142.76923076923077" height="25.612648221343875" as="geometry" />
        </mxCell>
        <mxCell id="i6aTKDcYkG1T6r6kzWJ1-27" value="+ ListResults()" style="text;align=left;verticalAlign=top;spacingLeft=4;spacingRight=4;overflow=hidden;rotatable=0;points=[[0,0.5],[1,0.5]];portConstraint=eastwest;fontStyle=4" parent="K8hFYXdYiZ7QDnOWog-U-1" vertex="1">
          <mxGeometry y="136.33140772271207" width="142.76923076923077" height="23.67" as="geometry" />
        </mxCell>
        <mxCell id="K8hFYXdYiZ7QDnOWog-U-7" value="CoachRepository" style="swimlane;fontStyle=1;align=center;verticalAlign=top;childLayout=stackLayout;horizontal=1;startSize=26;horizontalStack=0;resizeParent=1;resizeLast=0;collapsible=1;marginBottom=0;rounded=0;shadow=0;strokeWidth=1;" parent="1" vertex="1">
          <mxGeometry x="240.92307692307693" y="652.1374277896017" width="142.76923076923077" height="136.33140772271207" as="geometry">
            <mxRectangle x="130" y="380" width="160" height="26" as="alternateBounds" />
          </mxGeometry>
        </mxCell>
        <mxCell id="K8hFYXdYiZ7QDnOWog-U-8" value="" style="line;html=1;strokeWidth=1;align=left;verticalAlign=middle;spacingTop=-1;spacingLeft=3;spacingRight=3;rotatable=0;labelPosition=right;points=[];portConstraint=eastwest;" parent="K8hFYXdYiZ7QDnOWog-U-7" vertex="1">
          <mxGeometry y="26" width="142.76923076923077" height="7.880814837336577" as="geometry" />
        </mxCell>
        <mxCell id="K8hFYXdYiZ7QDnOWog-U-9" value="+ Update()" style="text;align=left;verticalAlign=top;spacingLeft=4;spacingRight=4;overflow=hidden;rotatable=0;points=[[0,0.5],[1,0.5]];portConstraint=eastwest;fontStyle=4" parent="K8hFYXdYiZ7QDnOWog-U-7" vertex="1">
          <mxGeometry y="33.88081483733658" width="142.76923076923077" height="25.612648221343875" as="geometry" />
        </mxCell>
        <mxCell id="K8hFYXdYiZ7QDnOWog-U-10" value="+ Create()" style="text;align=left;verticalAlign=top;spacingLeft=4;spacingRight=4;overflow=hidden;rotatable=0;points=[[0,0.5],[1,0.5]];portConstraint=eastwest;fontStyle=4" parent="K8hFYXdYiZ7QDnOWog-U-7" vertex="1">
          <mxGeometry y="59.493463058680454" width="142.76923076923077" height="25.612648221343875" as="geometry" />
        </mxCell>
        <mxCell id="K8hFYXdYiZ7QDnOWog-U-11" value="+ ListCoaches()" style="text;align=left;verticalAlign=top;spacingLeft=4;spacingRight=4;overflow=hidden;rotatable=0;points=[[0,0.5],[1,0.5]];portConstraint=eastwest;fontStyle=4" parent="K8hFYXdYiZ7QDnOWog-U-7" vertex="1">
          <mxGeometry y="85.10611128002432" width="142.76923076923077" height="25.612648221343875" as="geometry" />
        </mxCell>
        <mxCell id="K8hFYXdYiZ7QDnOWog-U-12" value="+ GetCoachByID()" style="text;align=left;verticalAlign=top;spacingLeft=4;spacingRight=4;overflow=hidden;rotatable=0;points=[[0,0.5],[1,0.5]];portConstraint=eastwest;fontStyle=4" parent="K8hFYXdYiZ7QDnOWog-U-7" vertex="1">
          <mxGeometry y="110.7187595013682" width="142.76923076923077" height="25.612648221343875" as="geometry" />
        </mxCell>
        <mxCell id="K8hFYXdYiZ7QDnOWog-U-13" value="ResultRepository" style="swimlane;fontStyle=1;align=center;verticalAlign=top;childLayout=stackLayout;horizontal=1;startSize=26;horizontalStack=0;resizeParent=1;resizeLast=0;collapsible=1;marginBottom=0;rounded=0;shadow=0;strokeWidth=1;" parent="1" vertex="1">
          <mxGeometry x="419.3846153846154" y="652.1374277896017" width="142.76923076923077" height="136.33140772271207" as="geometry">
            <mxRectangle x="130" y="380" width="160" height="26" as="alternateBounds" />
          </mxGeometry>
        </mxCell>
        <mxCell id="K8hFYXdYiZ7QDnOWog-U-14" value="" style="line;html=1;strokeWidth=1;align=left;verticalAlign=middle;spacingTop=-1;spacingLeft=3;spacingRight=3;rotatable=0;labelPosition=right;points=[];portConstraint=eastwest;" parent="K8hFYXdYiZ7QDnOWog-U-13" vertex="1">
          <mxGeometry y="26" width="142.76923076923077" height="7.880814837336577" as="geometry" />
        </mxCell>
        <mxCell id="K8hFYXdYiZ7QDnOWog-U-15" value="+ Update()" style="text;align=left;verticalAlign=top;spacingLeft=4;spacingRight=4;overflow=hidden;rotatable=0;points=[[0,0.5],[1,0.5]];portConstraint=eastwest;fontStyle=4" parent="K8hFYXdYiZ7QDnOWog-U-13" vertex="1">
          <mxGeometry y="33.88081483733658" width="142.76923076923077" height="25.612648221343875" as="geometry" />
        </mxCell>
        <mxCell id="K8hFYXdYiZ7QDnOWog-U-16" value="+ Create()" style="text;align=left;verticalAlign=top;spacingLeft=4;spacingRight=4;overflow=hidden;rotatable=0;points=[[0,0.5],[1,0.5]];portConstraint=eastwest;fontStyle=4" parent="K8hFYXdYiZ7QDnOWog-U-13" vertex="1">
          <mxGeometry y="59.493463058680454" width="142.76923076923077" height="25.612648221343875" as="geometry" />
        </mxCell>
        <mxCell id="K8hFYXdYiZ7QDnOWog-U-17" value="+ ListResults()" style="text;align=left;verticalAlign=top;spacingLeft=4;spacingRight=4;overflow=hidden;rotatable=0;points=[[0,0.5],[1,0.5]];portConstraint=eastwest;fontStyle=4" parent="K8hFYXdYiZ7QDnOWog-U-13" vertex="1">
          <mxGeometry y="85.10611128002432" width="142.76923076923077" height="25.612648221343875" as="geometry" />
        </mxCell>
        <mxCell id="K8hFYXdYiZ7QDnOWog-U-18" value="+ GetResultByID()" style="text;align=left;verticalAlign=top;spacingLeft=4;spacingRight=4;overflow=hidden;rotatable=0;points=[[0,0.5],[1,0.5]];portConstraint=eastwest;fontStyle=4" parent="K8hFYXdYiZ7QDnOWog-U-13" vertex="1">
          <mxGeometry y="110.7187595013682" width="142.76923076923077" height="25.612648221343875" as="geometry" />
        </mxCell>
        <mxCell id="K8hFYXdYiZ7QDnOWog-U-34" value="CompetitionRepository" style="swimlane;fontStyle=1;align=center;verticalAlign=top;childLayout=stackLayout;horizontal=1;startSize=26;horizontalStack=0;resizeParent=1;resizeLast=0;collapsible=1;marginBottom=0;rounded=0;shadow=0;strokeWidth=1;" parent="1" vertex="1">
          <mxGeometry x="597.8461538461538" y="652.1374277896017" width="142.76923076923077" height="160.0014077227121" as="geometry">
            <mxRectangle x="130" y="380" width="160" height="26" as="alternateBounds" />
          </mxGeometry>
        </mxCell>
        <mxCell id="K8hFYXdYiZ7QDnOWog-U-35" value="" style="line;html=1;strokeWidth=1;align=left;verticalAlign=middle;spacingTop=-1;spacingLeft=3;spacingRight=3;rotatable=0;labelPosition=right;points=[];portConstraint=eastwest;" parent="K8hFYXdYiZ7QDnOWog-U-34" vertex="1">
          <mxGeometry y="26" width="142.76923076923077" height="7.880814837336577" as="geometry" />
        </mxCell>
        <mxCell id="K8hFYXdYiZ7QDnOWog-U-36" value="+ Update()" style="text;align=left;verticalAlign=top;spacingLeft=4;spacingRight=4;overflow=hidden;rotatable=0;points=[[0,0.5],[1,0.5]];portConstraint=eastwest;fontStyle=4" parent="K8hFYXdYiZ7QDnOWog-U-34" vertex="1">
          <mxGeometry y="33.88081483733658" width="142.76923076923077" height="25.612648221343875" as="geometry" />
        </mxCell>
        <mxCell id="K8hFYXdYiZ7QDnOWog-U-37" value="+ Create()" style="text;align=left;verticalAlign=top;spacingLeft=4;spacingRight=4;overflow=hidden;rotatable=0;points=[[0,0.5],[1,0.5]];portConstraint=eastwest;fontStyle=4" parent="K8hFYXdYiZ7QDnOWog-U-34" vertex="1">
          <mxGeometry y="59.493463058680454" width="142.76923076923077" height="25.612648221343875" as="geometry" />
        </mxCell>
        <mxCell id="K8hFYXdYiZ7QDnOWog-U-38" value="+ ListComps()" style="text;align=left;verticalAlign=top;spacingLeft=4;spacingRight=4;overflow=hidden;rotatable=0;points=[[0,0.5],[1,0.5]];portConstraint=eastwest;fontStyle=4" parent="K8hFYXdYiZ7QDnOWog-U-34" vertex="1">
          <mxGeometry y="85.10611128002432" width="142.76923076923077" height="25.612648221343875" as="geometry" />
        </mxCell>
        <mxCell id="K8hFYXdYiZ7QDnOWog-U-39" value="+ GetCompByID()" style="text;align=left;verticalAlign=top;spacingLeft=4;spacingRight=4;overflow=hidden;rotatable=0;points=[[0,0.5],[1,0.5]];portConstraint=eastwest;fontStyle=4" parent="K8hFYXdYiZ7QDnOWog-U-34" vertex="1">
          <mxGeometry y="110.7187595013682" width="142.76923076923077" height="25.612648221343875" as="geometry" />
        </mxCell>
        <mxCell id="i6aTKDcYkG1T6r6kzWJ1-18" value="+ RegisterSportsman()" style="text;align=left;verticalAlign=top;spacingLeft=4;spacingRight=4;overflow=hidden;rotatable=0;points=[[0,0.5],[1,0.5]];portConstraint=eastwest;fontStyle=4" parent="K8hFYXdYiZ7QDnOWog-U-34" vertex="1">
          <mxGeometry y="136.33140772271207" width="142.76923076923077" height="23.67" as="geometry" />
        </mxCell>
        <mxCell id="K8hFYXdYiZ7QDnOWog-U-55" value="TrainingCampRepository" style="swimlane;fontStyle=1;align=center;verticalAlign=top;childLayout=stackLayout;horizontal=1;startSize=26;horizontalStack=0;resizeParent=1;resizeLast=0;collapsible=1;marginBottom=0;rounded=0;shadow=0;strokeWidth=1;" parent="1" vertex="1">
          <mxGeometry x="776.3076923076924" y="652.1374277896017" width="142.76923076923077" height="160.0014077227121" as="geometry">
            <mxRectangle x="130" y="380" width="160" height="26" as="alternateBounds" />
          </mxGeometry>
        </mxCell>
        <mxCell id="K8hFYXdYiZ7QDnOWog-U-56" value="" style="line;html=1;strokeWidth=1;align=left;verticalAlign=middle;spacingTop=-1;spacingLeft=3;spacingRight=3;rotatable=0;labelPosition=right;points=[];portConstraint=eastwest;" parent="K8hFYXdYiZ7QDnOWog-U-55" vertex="1">
          <mxGeometry y="26" width="142.76923076923077" height="7.880814837336577" as="geometry" />
        </mxCell>
        <mxCell id="K8hFYXdYiZ7QDnOWog-U-57" value="+ Update()" style="text;align=left;verticalAlign=top;spacingLeft=4;spacingRight=4;overflow=hidden;rotatable=0;points=[[0,0.5],[1,0.5]];portConstraint=eastwest;fontStyle=4" parent="K8hFYXdYiZ7QDnOWog-U-55" vertex="1">
          <mxGeometry y="33.88081483733658" width="142.76923076923077" height="25.612648221343875" as="geometry" />
        </mxCell>
        <mxCell id="K8hFYXdYiZ7QDnOWog-U-58" value="+ Create()" style="text;align=left;verticalAlign=top;spacingLeft=4;spacingRight=4;overflow=hidden;rotatable=0;points=[[0,0.5],[1,0.5]];portConstraint=eastwest;fontStyle=4" parent="K8hFYXdYiZ7QDnOWog-U-55" vertex="1">
          <mxGeometry y="59.493463058680454" width="142.76923076923077" height="25.612648221343875" as="geometry" />
        </mxCell>
        <mxCell id="K8hFYXdYiZ7QDnOWog-U-59" value="+ ListTCamps()" style="text;align=left;verticalAlign=top;spacingLeft=4;spacingRight=4;overflow=hidden;rotatable=0;points=[[0,0.5],[1,0.5]];portConstraint=eastwest;fontStyle=4" parent="K8hFYXdYiZ7QDnOWog-U-55" vertex="1">
          <mxGeometry y="85.10611128002432" width="142.76923076923077" height="25.612648221343875" as="geometry" />
        </mxCell>
        <mxCell id="K8hFYXdYiZ7QDnOWog-U-60" value="+ GetTCampByID()" style="text;align=left;verticalAlign=top;spacingLeft=4;spacingRight=4;overflow=hidden;rotatable=0;points=[[0,0.5],[1,0.5]];portConstraint=eastwest;fontStyle=4" parent="K8hFYXdYiZ7QDnOWog-U-55" vertex="1">
          <mxGeometry y="110.7187595013682" width="142.76923076923077" height="25.612648221343875" as="geometry" />
        </mxCell>
        <mxCell id="i6aTKDcYkG1T6r6kzWJ1-23" value="+ RegisterSportsman()" style="text;align=left;verticalAlign=top;spacingLeft=4;spacingRight=4;overflow=hidden;rotatable=0;points=[[0,0.5],[1,0.5]];portConstraint=eastwest;fontStyle=4" parent="K8hFYXdYiZ7QDnOWog-U-55" vertex="1">
          <mxGeometry y="136.33140772271207" width="142.76923076923077" height="23.67" as="geometry" />
        </mxCell>
        <mxCell id="K8hFYXdYiZ7QDnOWog-U-61" value="UserRepository" style="swimlane;fontStyle=1;align=center;verticalAlign=top;childLayout=stackLayout;horizontal=1;startSize=26;horizontalStack=0;resizeParent=1;resizeLast=0;collapsible=1;marginBottom=0;rounded=0;shadow=0;strokeWidth=1;" parent="1" vertex="1">
          <mxGeometry x="954.7692307692308" y="652.1374277896017" width="142.76923076923077" height="110.7187595013682" as="geometry">
            <mxRectangle x="130" y="380" width="160" height="26" as="alternateBounds" />
          </mxGeometry>
        </mxCell>
        <mxCell id="K8hFYXdYiZ7QDnOWog-U-62" value="" style="line;html=1;strokeWidth=1;align=left;verticalAlign=middle;spacingTop=-1;spacingLeft=3;spacingRight=3;rotatable=0;labelPosition=right;points=[];portConstraint=eastwest;" parent="K8hFYXdYiZ7QDnOWog-U-61" vertex="1">
          <mxGeometry y="26" width="142.76923076923077" height="7.880814837336577" as="geometry" />
        </mxCell>
        <mxCell id="K8hFYXdYiZ7QDnOWog-U-63" value="+ Create()" style="text;align=left;verticalAlign=top;spacingLeft=4;spacingRight=4;overflow=hidden;rotatable=0;points=[[0,0.5],[1,0.5]];portConstraint=eastwest;fontStyle=4" parent="K8hFYXdYiZ7QDnOWog-U-61" vertex="1">
          <mxGeometry y="33.88081483733658" width="142.76923076923077" height="25.612648221343875" as="geometry" />
        </mxCell>
        <mxCell id="K8hFYXdYiZ7QDnOWog-U-64" value="+ Update()" style="text;align=left;verticalAlign=top;spacingLeft=4;spacingRight=4;overflow=hidden;rotatable=0;points=[[0,0.5],[1,0.5]];portConstraint=eastwest;fontStyle=4" parent="K8hFYXdYiZ7QDnOWog-U-61" vertex="1">
          <mxGeometry y="59.493463058680454" width="142.76923076923077" height="25.612648221343875" as="geometry" />
        </mxCell>
        <mxCell id="K8hFYXdYiZ7QDnOWog-U-65" value="+ GetUserByID()" style="text;align=left;verticalAlign=top;spacingLeft=4;spacingRight=4;overflow=hidden;rotatable=0;points=[[0,0.5],[1,0.5]];portConstraint=eastwest;fontStyle=4" parent="K8hFYXdYiZ7QDnOWog-U-61" vertex="1">
          <mxGeometry y="85.10611128002432" width="142.76923076923077" height="25.612648221343875" as="geometry" />
        </mxCell>
        <mxCell id="i6aTKDcYkG1T6r6kzWJ1-1" style="edgeStyle=orthogonalEdgeStyle;rounded=0;orthogonalLoop=1;jettySize=auto;html=1;exitX=0.5;exitY=0;exitDx=0;exitDy=0;entryX=0.503;entryY=0.963;entryDx=0;entryDy=0;entryPerimeter=0;dashed=1;strokeColor=default;align=center;verticalAlign=middle;fontFamily=Helvetica;fontSize=11;fontColor=default;labelBackgroundColor=default;endArrow=block;endFill=0;" parent="1" edge="1">
          <mxGeometry relative="1" as="geometry">
            <mxPoint x="312.04" y="651.6448768622681" as="sourcePoint" />
            <mxPoint x="312.04" y="591.30738826391" as="targetPoint" />
          </mxGeometry>
        </mxCell>
        <mxCell id="i6aTKDcYkG1T6r6kzWJ1-2" style="rounded=0;orthogonalLoop=1;jettySize=auto;html=1;exitX=0.5;exitY=0;exitDx=0;exitDy=0;dashed=1;strokeColor=default;align=center;verticalAlign=middle;fontFamily=Helvetica;fontSize=11;fontColor=default;labelBackgroundColor=default;endArrow=block;endFill=0;edgeStyle=elbowEdgeStyle;elbow=vertical;" parent="1" edge="1">
          <mxGeometry relative="1" as="geometry">
            <mxPoint x="492.5915384615385" y="651.6448768622681" as="sourcePoint" />
            <mxPoint x="493" y="600" as="targetPoint" />
          </mxGeometry>
        </mxCell>
        <mxCell id="i6aTKDcYkG1T6r6kzWJ1-3" style="edgeStyle=orthogonalEdgeStyle;rounded=0;orthogonalLoop=1;jettySize=auto;html=1;dashed=1;strokeColor=default;align=center;verticalAlign=middle;fontFamily=Helvetica;fontSize=11;fontColor=default;labelBackgroundColor=default;endArrow=block;endFill=0;entryX=0.5;entryY=1;entryDx=0;entryDy=0;exitX=0.5;exitY=0;exitDx=0;exitDy=0;" parent="1" source="K8hFYXdYiZ7QDnOWog-U-34" target="pnGU21rXxWi9947GBNGK-215" edge="1">
          <mxGeometry relative="1" as="geometry">
            <mxPoint x="668.963076923077" y="652.1374277896017" as="sourcePoint" />
            <mxPoint x="700" y="620" as="targetPoint" />
          </mxGeometry>
        </mxCell>
        <mxCell id="i6aTKDcYkG1T6r6kzWJ1-4" style="edgeStyle=orthogonalEdgeStyle;rounded=0;orthogonalLoop=1;jettySize=auto;html=1;exitX=0.5;exitY=0;exitDx=0;exitDy=0;dashed=1;strokeColor=default;align=center;verticalAlign=middle;fontFamily=Helvetica;fontSize=11;fontColor=default;labelBackgroundColor=default;endArrow=block;endFill=0;entryX=0.5;entryY=1;entryDx=0;entryDy=0;" parent="1" target="pnGU21rXxWi9947GBNGK-259" edge="1">
          <mxGeometry relative="1" as="geometry">
            <mxPoint x="847.4246153846154" y="651.6448768622681" as="sourcePoint" />
            <mxPoint x="870" y="620" as="targetPoint" />
          </mxGeometry>
        </mxCell>
        <mxCell id="i6aTKDcYkG1T6r6kzWJ1-5" style="edgeStyle=orthogonalEdgeStyle;rounded=0;orthogonalLoop=1;jettySize=auto;html=1;exitX=0.5;exitY=0;exitDx=0;exitDy=0;entryX=0.5;entryY=1;entryDx=0;entryDy=0;dashed=1;strokeColor=default;align=center;verticalAlign=middle;fontFamily=Helvetica;fontSize=11;fontColor=default;labelBackgroundColor=default;endArrow=block;endFill=0;" parent="1" source="K8hFYXdYiZ7QDnOWog-U-61" target="pnGU21rXxWi9947GBNGK-272" edge="1">
          <mxGeometry relative="1" as="geometry">
            <mxPoint x="1025.886153846154" y="652.1374277896017" as="sourcePoint" />
            <mxPoint x="1025.886153846154" y="591.7999391912435" as="targetPoint" />
          </mxGeometry>
        </mxCell>
        <mxCell id="i6aTKDcYkG1T6r6kzWJ1-7" style="edgeStyle=orthogonalEdgeStyle;rounded=0;orthogonalLoop=1;jettySize=auto;html=1;exitX=0.25;exitY=1;exitDx=0;exitDy=0;entryX=0.75;entryY=0;entryDx=0;entryDy=0;dashed=1;endArrow=open;endFill=0;jumpStyle=arc;jumpSize=10;" parent="1" source="pnGU21rXxWi9947GBNGK-185" target="pnGU21rXxWi9947GBNGK-32" edge="1">
          <mxGeometry relative="1" as="geometry">
            <Array as="points">
              <mxPoint x="455" y="400" />
              <mxPoint x="170" y="400" />
            </Array>
          </mxGeometry>
        </mxCell>
        <mxCell id="i6aTKDcYkG1T6r6kzWJ1-8" style="edgeStyle=orthogonalEdgeStyle;rounded=0;orthogonalLoop=1;jettySize=auto;html=1;exitX=0.75;exitY=1;exitDx=0;exitDy=0;dashed=1;strokeColor=default;align=center;verticalAlign=middle;fontFamily=Helvetica;fontSize=11;fontColor=default;labelBackgroundColor=default;endArrow=open;endFill=0;jumpStyle=arc;entryX=0.126;entryY=-0.012;entryDx=0;entryDy=0;entryPerimeter=0;" parent="1" source="pnGU21rXxWi9947GBNGK-185" target="pnGU21rXxWi9947GBNGK-215" edge="1">
          <mxGeometry relative="1" as="geometry">
            <mxPoint x="600" y="410" as="targetPoint" />
          </mxGeometry>
        </mxCell>
        <mxCell id="i6aTKDcYkG1T6r6kzWJ1-10" style="edgeStyle=orthogonalEdgeStyle;rounded=0;jumpStyle=arc;orthogonalLoop=1;jettySize=auto;html=1;exitX=0.25;exitY=1;exitDx=0;exitDy=0;entryX=1;entryY=0;entryDx=0;entryDy=0;dashed=1;strokeColor=default;align=center;verticalAlign=middle;fontFamily=Helvetica;fontSize=11;fontColor=default;labelBackgroundColor=default;endArrow=open;endFill=0;jumpSize=10;" parent="1" source="pnGU21rXxWi9947GBNGK-253" target="pnGU21rXxWi9947GBNGK-32" edge="1">
          <mxGeometry relative="1" as="geometry">
            <Array as="points">
              <mxPoint x="812" y="420" />
              <mxPoint x="205" y="420" />
            </Array>
          </mxGeometry>
        </mxCell>
        <mxCell id="i6aTKDcYkG1T6r6kzWJ1-13" style="edgeStyle=orthogonalEdgeStyle;rounded=0;jumpStyle=arc;jumpSize=10;orthogonalLoop=1;jettySize=auto;html=1;exitX=0.25;exitY=1;exitDx=0;exitDy=0;dashed=1;strokeColor=default;align=center;verticalAlign=middle;fontFamily=Helvetica;fontSize=11;fontColor=default;labelBackgroundColor=default;endArrow=open;endFill=0;" parent="1" source="pnGU21rXxWi9947GBNGK-165" edge="1">
          <mxGeometry relative="1" as="geometry">
            <mxPoint x="149" y="440" as="targetPoint" />
            <Array as="points">
              <mxPoint x="277" y="390" />
              <mxPoint x="149" y="390" />
            </Array>
          </mxGeometry>
        </mxCell>
        <mxCell id="pnGU21rXxWi9947GBNGK-221" value="ICompetitionService" style="swimlane;fontStyle=1;align=center;verticalAlign=top;childLayout=stackLayout;horizontal=1;startSize=26;horizontalStack=0;resizeParent=1;resizeLast=0;collapsible=1;marginBottom=0;rounded=0;shadow=0;strokeWidth=1;" parent="1" vertex="1">
          <mxGeometry x="597.8461538461538" y="19.70203709334144" width="142.77" height="161.94405594405595" as="geometry">
            <mxRectangle x="130" y="380" width="160" height="26" as="alternateBounds" />
          </mxGeometry>
        </mxCell>
        <mxCell id="pnGU21rXxWi9947GBNGK-222" value="" style="line;html=1;strokeWidth=1;align=left;verticalAlign=middle;spacingTop=-1;spacingLeft=3;spacingRight=3;rotatable=0;labelPosition=right;points=[];portConstraint=eastwest;" parent="pnGU21rXxWi9947GBNGK-221" vertex="1">
          <mxGeometry y="26" width="142.77" height="7.880814837336576" as="geometry" />
        </mxCell>
        <mxCell id="pnGU21rXxWi9947GBNGK-223" value="+ Update()" style="text;align=left;verticalAlign=top;spacingLeft=4;spacingRight=4;overflow=hidden;rotatable=0;points=[[0,0.5],[1,0.5]];portConstraint=eastwest;fontStyle=4" parent="pnGU21rXxWi9947GBNGK-221" vertex="1">
          <mxGeometry y="33.88081483733657" width="142.77" height="25.61264822134387" as="geometry" />
        </mxCell>
        <mxCell id="pnGU21rXxWi9947GBNGK-224" value="+ Create()" style="text;align=left;verticalAlign=top;spacingLeft=4;spacingRight=4;overflow=hidden;rotatable=0;points=[[0,0.5],[1,0.5]];portConstraint=eastwest;fontStyle=4" parent="pnGU21rXxWi9947GBNGK-221" vertex="1">
          <mxGeometry y="59.49346305868045" width="142.77" height="25.61264822134387" as="geometry" />
        </mxCell>
        <mxCell id="pnGU21rXxWi9947GBNGK-225" value="+ ListComps()" style="text;align=left;verticalAlign=top;spacingLeft=4;spacingRight=4;overflow=hidden;rotatable=0;points=[[0,0.5],[1,0.5]];portConstraint=eastwest;fontStyle=4" parent="pnGU21rXxWi9947GBNGK-221" vertex="1">
          <mxGeometry y="85.10611128002432" width="142.77" height="25.61264822134387" as="geometry" />
        </mxCell>
        <mxCell id="pnGU21rXxWi9947GBNGK-226" value="+ GetCompByID()" style="text;align=left;verticalAlign=top;spacingLeft=4;spacingRight=4;overflow=hidden;rotatable=0;points=[[0,0.5],[1,0.5]];portConstraint=eastwest;fontStyle=4" parent="pnGU21rXxWi9947GBNGK-221" vertex="1">
          <mxGeometry y="110.7187595013682" width="142.77" height="25.61264822134387" as="geometry" />
        </mxCell>
        <mxCell id="i6aTKDcYkG1T6r6kzWJ1-15" value="+ RegisterSportsman()" style="text;align=left;verticalAlign=top;spacingLeft=4;spacingRight=4;overflow=hidden;rotatable=0;points=[[0,0.5],[1,0.5]];portConstraint=eastwest;fontStyle=4" parent="pnGU21rXxWi9947GBNGK-221" vertex="1">
          <mxGeometry y="136.33140772271207" width="142.77" height="25.61264822134387" as="geometry" />
        </mxCell>
        <mxCell id="pnGU21rXxWi9947GBNGK-207" style="edgeStyle=orthogonalEdgeStyle;rounded=0;orthogonalLoop=1;jettySize=auto;html=1;exitX=0.5;exitY=0;exitDx=0;exitDy=0;dashed=1;strokeColor=default;align=center;verticalAlign=middle;fontFamily=Helvetica;fontSize=11;fontColor=default;labelBackgroundColor=default;endArrow=block;endFill=0;entryX=0.5;entryY=1;entryDx=0;entryDy=0;" parent="1" source="pnGU21rXxWi9947GBNGK-209" target="pnGU21rXxWi9947GBNGK-221" edge="1">
          <mxGeometry relative="1" as="geometry">
            <mxPoint x="650" y="190" as="targetPoint" />
          </mxGeometry>
        </mxCell>
        <mxCell id="pnGU21rXxWi9947GBNGK-208" style="edgeStyle=orthogonalEdgeStyle;rounded=0;orthogonalLoop=1;jettySize=auto;html=1;exitX=0.5;exitY=1;exitDx=0;exitDy=0;dashed=1;strokeColor=default;align=center;verticalAlign=middle;fontFamily=Helvetica;fontSize=11;fontColor=default;labelBackgroundColor=default;endArrow=open;endFill=0;" parent="1" source="pnGU21rXxWi9947GBNGK-209" target="pnGU21rXxWi9947GBNGK-215" edge="1">
          <mxGeometry relative="1" as="geometry" />
        </mxCell>
        <mxCell id="i6aTKDcYkG1T6r6kzWJ1-22" style="edgeStyle=orthogonalEdgeStyle;rounded=0;jumpStyle=arc;jumpSize=10;orthogonalLoop=1;jettySize=auto;html=1;exitX=0.25;exitY=1;exitDx=0;exitDy=0;dashed=1;strokeColor=default;align=center;verticalAlign=middle;fontFamily=Helvetica;fontSize=11;fontColor=default;labelBackgroundColor=default;endArrow=open;endFill=0;entryX=0.864;entryY=-0.012;entryDx=0;entryDy=0;entryPerimeter=0;" parent="1" source="pnGU21rXxWi9947GBNGK-209" target="pnGU21rXxWi9947GBNGK-32" edge="1">
          <mxGeometry relative="1" as="geometry">
            <mxPoint x="580" y="420" as="targetPoint" />
            <Array as="points">
              <mxPoint x="634" y="410" />
              <mxPoint x="186" y="410" />
            </Array>
          </mxGeometry>
        </mxCell>
        <mxCell id="pnGU21rXxWi9947GBNGK-209" value="CompetitionService" style="swimlane;fontStyle=1;align=center;verticalAlign=top;childLayout=stackLayout;horizontal=1;startSize=26;horizontalStack=0;resizeParent=1;resizeLast=0;collapsible=1;marginBottom=0;rounded=0;shadow=0;strokeWidth=1;" parent="1" vertex="1">
          <mxGeometry x="597.85" y="218.69" width="142.77" height="161.94405594405595" as="geometry">
            <mxRectangle x="130" y="380" width="160" height="26" as="alternateBounds" />
          </mxGeometry>
        </mxCell>
        <mxCell id="pnGU21rXxWi9947GBNGK-210" value="" style="line;html=1;strokeWidth=1;align=left;verticalAlign=middle;spacingTop=-1;spacingLeft=3;spacingRight=3;rotatable=0;labelPosition=right;points=[];portConstraint=eastwest;" parent="pnGU21rXxWi9947GBNGK-209" vertex="1">
          <mxGeometry y="26" width="142.77" height="7.880814837336576" as="geometry" />
        </mxCell>
        <mxCell id="pnGU21rXxWi9947GBNGK-211" value="+ Update()" style="text;align=left;verticalAlign=top;spacingLeft=4;spacingRight=4;overflow=hidden;rotatable=0;points=[[0,0.5],[1,0.5]];portConstraint=eastwest;fontStyle=4" parent="pnGU21rXxWi9947GBNGK-209" vertex="1">
          <mxGeometry y="33.88081483733657" width="142.77" height="25.61264822134387" as="geometry" />
        </mxCell>
        <mxCell id="pnGU21rXxWi9947GBNGK-212" value="+ Create()" style="text;align=left;verticalAlign=top;spacingLeft=4;spacingRight=4;overflow=hidden;rotatable=0;points=[[0,0.5],[1,0.5]];portConstraint=eastwest;fontStyle=4" parent="pnGU21rXxWi9947GBNGK-209" vertex="1">
          <mxGeometry y="59.49346305868045" width="142.77" height="25.61264822134387" as="geometry" />
        </mxCell>
        <mxCell id="pnGU21rXxWi9947GBNGK-213" value="+ ListComps()" style="text;align=left;verticalAlign=top;spacingLeft=4;spacingRight=4;overflow=hidden;rotatable=0;points=[[0,0.5],[1,0.5]];portConstraint=eastwest;fontStyle=4" parent="pnGU21rXxWi9947GBNGK-209" vertex="1">
          <mxGeometry y="85.10611128002432" width="142.77" height="25.61264822134387" as="geometry" />
        </mxCell>
        <mxCell id="pnGU21rXxWi9947GBNGK-214" value="+ GetCompByID()" style="text;align=left;verticalAlign=top;spacingLeft=4;spacingRight=4;overflow=hidden;rotatable=0;points=[[0,0.5],[1,0.5]];portConstraint=eastwest;fontStyle=4" parent="pnGU21rXxWi9947GBNGK-209" vertex="1">
          <mxGeometry y="110.7187595013682" width="142.77" height="25.61264822134387" as="geometry" />
        </mxCell>
        <mxCell id="i6aTKDcYkG1T6r6kzWJ1-16" value="+ RegisterSportsman()" style="text;align=left;verticalAlign=top;spacingLeft=4;spacingRight=4;overflow=hidden;rotatable=0;points=[[0,0.5],[1,0.5]];portConstraint=eastwest;fontStyle=4" parent="pnGU21rXxWi9947GBNGK-209" vertex="1">
          <mxGeometry y="136.33140772271207" width="142.77" height="23.67" as="geometry" />
        </mxCell>
        <mxCell id="pnGU21rXxWi9947GBNGK-215" value="ICompetitionRepository" style="swimlane;fontStyle=1;align=center;verticalAlign=top;childLayout=stackLayout;horizontal=1;startSize=26;horizontalStack=0;resizeParent=1;resizeLast=0;collapsible=1;marginBottom=0;rounded=0;shadow=0;strokeWidth=1;" parent="1" vertex="1">
          <mxGeometry x="597.85" y="441.59" width="142.77" height="160.00140772271203" as="geometry">
            <mxRectangle x="130" y="380" width="160" height="26" as="alternateBounds" />
          </mxGeometry>
        </mxCell>
        <mxCell id="pnGU21rXxWi9947GBNGK-216" value="" style="line;html=1;strokeWidth=1;align=left;verticalAlign=middle;spacingTop=-1;spacingLeft=3;spacingRight=3;rotatable=0;labelPosition=right;points=[];portConstraint=eastwest;" parent="pnGU21rXxWi9947GBNGK-215" vertex="1">
          <mxGeometry y="26" width="142.77" height="7.880814837336575" as="geometry" />
        </mxCell>
        <mxCell id="pnGU21rXxWi9947GBNGK-217" value="+ Update()" style="text;align=left;verticalAlign=top;spacingLeft=4;spacingRight=4;overflow=hidden;rotatable=0;points=[[0,0.5],[1,0.5]];portConstraint=eastwest;fontStyle=4" parent="pnGU21rXxWi9947GBNGK-215" vertex="1">
          <mxGeometry y="33.88081483733657" width="142.77" height="25.612648221343868" as="geometry" />
        </mxCell>
        <mxCell id="pnGU21rXxWi9947GBNGK-218" value="+ Create()" style="text;align=left;verticalAlign=top;spacingLeft=4;spacingRight=4;overflow=hidden;rotatable=0;points=[[0,0.5],[1,0.5]];portConstraint=eastwest;fontStyle=4" parent="pnGU21rXxWi9947GBNGK-215" vertex="1">
          <mxGeometry y="59.49346305868044" width="142.77" height="25.612648221343868" as="geometry" />
        </mxCell>
        <mxCell id="pnGU21rXxWi9947GBNGK-219" value="+ ListComps()" style="text;align=left;verticalAlign=top;spacingLeft=4;spacingRight=4;overflow=hidden;rotatable=0;points=[[0,0.5],[1,0.5]];portConstraint=eastwest;fontStyle=4" parent="pnGU21rXxWi9947GBNGK-215" vertex="1">
          <mxGeometry y="85.10611128002431" width="142.77" height="25.612648221343868" as="geometry" />
        </mxCell>
        <mxCell id="pnGU21rXxWi9947GBNGK-220" value="+ GetCompByID()" style="text;align=left;verticalAlign=top;spacingLeft=4;spacingRight=4;overflow=hidden;rotatable=0;points=[[0,0.5],[1,0.5]];portConstraint=eastwest;fontStyle=4" parent="pnGU21rXxWi9947GBNGK-215" vertex="1">
          <mxGeometry y="110.71875950136817" width="142.77" height="25.612648221343868" as="geometry" />
        </mxCell>
        <mxCell id="i6aTKDcYkG1T6r6kzWJ1-17" value="+ RegisterSportsman()" style="text;align=left;verticalAlign=top;spacingLeft=4;spacingRight=4;overflow=hidden;rotatable=0;points=[[0,0.5],[1,0.5]];portConstraint=eastwest;fontStyle=4" parent="pnGU21rXxWi9947GBNGK-215" vertex="1">
          <mxGeometry y="136.33140772271204" width="142.77" height="23.67" as="geometry" />
        </mxCell>
        <mxCell id="pnGU21rXxWi9947GBNGK-244" value="ITrainingCampService" style="swimlane;fontStyle=1;align=center;verticalAlign=top;childLayout=stackLayout;horizontal=1;startSize=26;horizontalStack=0;resizeParent=1;resizeLast=0;collapsible=1;marginBottom=0;rounded=0;shadow=0;strokeWidth=1;" parent="1" vertex="1">
          <mxGeometry x="776.3076923076924" y="19.70203709334144" width="142.77" height="161.94405594405595" as="geometry">
            <mxRectangle x="130" y="380" width="160" height="26" as="alternateBounds" />
          </mxGeometry>
        </mxCell>
        <mxCell id="pnGU21rXxWi9947GBNGK-245" value="" style="line;html=1;strokeWidth=1;align=left;verticalAlign=middle;spacingTop=-1;spacingLeft=3;spacingRight=3;rotatable=0;labelPosition=right;points=[];portConstraint=eastwest;" parent="pnGU21rXxWi9947GBNGK-244" vertex="1">
          <mxGeometry y="26" width="142.77" height="7.880814837336576" as="geometry" />
        </mxCell>
        <mxCell id="pnGU21rXxWi9947GBNGK-246" value="+ Update()" style="text;align=left;verticalAlign=top;spacingLeft=4;spacingRight=4;overflow=hidden;rotatable=0;points=[[0,0.5],[1,0.5]];portConstraint=eastwest;fontStyle=4" parent="pnGU21rXxWi9947GBNGK-244" vertex="1">
          <mxGeometry y="33.88081483733657" width="142.77" height="25.61264822134387" as="geometry" />
        </mxCell>
        <mxCell id="pnGU21rXxWi9947GBNGK-247" value="+ Create()" style="text;align=left;verticalAlign=top;spacingLeft=4;spacingRight=4;overflow=hidden;rotatable=0;points=[[0,0.5],[1,0.5]];portConstraint=eastwest;fontStyle=4" parent="pnGU21rXxWi9947GBNGK-244" vertex="1">
          <mxGeometry y="59.49346305868045" width="142.77" height="25.61264822134387" as="geometry" />
        </mxCell>
        <mxCell id="pnGU21rXxWi9947GBNGK-248" value="+ ListTCamps()" style="text;align=left;verticalAlign=top;spacingLeft=4;spacingRight=4;overflow=hidden;rotatable=0;points=[[0,0.5],[1,0.5]];portConstraint=eastwest;fontStyle=4" parent="pnGU21rXxWi9947GBNGK-244" vertex="1">
          <mxGeometry y="85.10611128002432" width="142.77" height="25.61264822134387" as="geometry" />
        </mxCell>
        <mxCell id="pnGU21rXxWi9947GBNGK-249" value="+ GetTCampByID()" style="text;align=left;verticalAlign=top;spacingLeft=4;spacingRight=4;overflow=hidden;rotatable=0;points=[[0,0.5],[1,0.5]];portConstraint=eastwest;fontStyle=4" parent="pnGU21rXxWi9947GBNGK-244" vertex="1">
          <mxGeometry y="110.7187595013682" width="142.77" height="25.61264822134387" as="geometry" />
        </mxCell>
        <mxCell id="i6aTKDcYkG1T6r6kzWJ1-19" value="+ RegisterSportsman()" style="text;align=left;verticalAlign=top;spacingLeft=4;spacingRight=4;overflow=hidden;rotatable=0;points=[[0,0.5],[1,0.5]];portConstraint=eastwest;fontStyle=4" parent="pnGU21rXxWi9947GBNGK-244" vertex="1">
          <mxGeometry y="136.33140772271207" width="142.77" height="23.67" as="geometry" />
        </mxCell>
        <mxCell id="pnGU21rXxWi9947GBNGK-251" style="edgeStyle=orthogonalEdgeStyle;rounded=0;orthogonalLoop=1;jettySize=auto;html=1;exitX=0.5;exitY=0;exitDx=0;exitDy=0;dashed=1;strokeColor=default;align=center;verticalAlign=middle;fontFamily=Helvetica;fontSize=11;fontColor=default;labelBackgroundColor=default;endArrow=block;endFill=0;entryX=0.5;entryY=1;entryDx=0;entryDy=0;" parent="1" source="pnGU21rXxWi9947GBNGK-253" target="pnGU21rXxWi9947GBNGK-244" edge="1">
          <mxGeometry relative="1" as="geometry">
            <mxPoint x="980" y="190" as="targetPoint" />
          </mxGeometry>
        </mxCell>
        <mxCell id="pnGU21rXxWi9947GBNGK-252" style="edgeStyle=orthogonalEdgeStyle;rounded=0;orthogonalLoop=1;jettySize=auto;html=1;exitX=0.5;exitY=1;exitDx=0;exitDy=0;dashed=1;strokeColor=default;align=center;verticalAlign=middle;fontFamily=Helvetica;fontSize=11;fontColor=default;labelBackgroundColor=default;endArrow=open;endFill=0;" parent="1" source="pnGU21rXxWi9947GBNGK-253" target="pnGU21rXxWi9947GBNGK-259" edge="1">
          <mxGeometry relative="1" as="geometry" />
        </mxCell>
        <mxCell id="pnGU21rXxWi9947GBNGK-253" value="TrainingCampService" style="swimlane;fontStyle=1;align=center;verticalAlign=top;childLayout=stackLayout;horizontal=1;startSize=26;horizontalStack=0;resizeParent=1;resizeLast=0;collapsible=1;marginBottom=0;rounded=0;shadow=0;strokeWidth=1;" parent="1" vertex="1">
          <mxGeometry x="776.3076923076924" y="218.69261173608996" width="142.76923076923077" height="160.0014077227121" as="geometry">
            <mxRectangle x="130" y="380" width="160" height="26" as="alternateBounds" />
          </mxGeometry>
        </mxCell>
        <mxCell id="pnGU21rXxWi9947GBNGK-254" value="" style="line;html=1;strokeWidth=1;align=left;verticalAlign=middle;spacingTop=-1;spacingLeft=3;spacingRight=3;rotatable=0;labelPosition=right;points=[];portConstraint=eastwest;" parent="pnGU21rXxWi9947GBNGK-253" vertex="1">
          <mxGeometry y="26" width="142.76923076923077" height="7.880814837336576" as="geometry" />
        </mxCell>
        <mxCell id="pnGU21rXxWi9947GBNGK-255" value="+ Update()" style="text;align=left;verticalAlign=top;spacingLeft=4;spacingRight=4;overflow=hidden;rotatable=0;points=[[0,0.5],[1,0.5]];portConstraint=eastwest;fontStyle=4" parent="pnGU21rXxWi9947GBNGK-253" vertex="1">
          <mxGeometry y="33.88081483733657" width="142.76923076923077" height="25.61264822134387" as="geometry" />
        </mxCell>
        <mxCell id="pnGU21rXxWi9947GBNGK-256" value="+ Create()" style="text;align=left;verticalAlign=top;spacingLeft=4;spacingRight=4;overflow=hidden;rotatable=0;points=[[0,0.5],[1,0.5]];portConstraint=eastwest;fontStyle=4" parent="pnGU21rXxWi9947GBNGK-253" vertex="1">
          <mxGeometry y="59.49346305868045" width="142.76923076923077" height="25.61264822134387" as="geometry" />
        </mxCell>
        <mxCell id="pnGU21rXxWi9947GBNGK-257" value="+ ListTCamps()" style="text;align=left;verticalAlign=top;spacingLeft=4;spacingRight=4;overflow=hidden;rotatable=0;points=[[0,0.5],[1,0.5]];portConstraint=eastwest;fontStyle=4" parent="pnGU21rXxWi9947GBNGK-253" vertex="1">
          <mxGeometry y="85.10611128002432" width="142.76923076923077" height="25.61264822134387" as="geometry" />
        </mxCell>
        <mxCell id="pnGU21rXxWi9947GBNGK-258" value="+ GetTCampByID()" style="text;align=left;verticalAlign=top;spacingLeft=4;spacingRight=4;overflow=hidden;rotatable=0;points=[[0,0.5],[1,0.5]];portConstraint=eastwest;fontStyle=4" parent="pnGU21rXxWi9947GBNGK-253" vertex="1">
          <mxGeometry y="110.7187595013682" width="142.76923076923077" height="25.61264822134387" as="geometry" />
        </mxCell>
        <mxCell id="i6aTKDcYkG1T6r6kzWJ1-20" value="+ RegisterSportsman()" style="text;align=left;verticalAlign=top;spacingLeft=4;spacingRight=4;overflow=hidden;rotatable=0;points=[[0,0.5],[1,0.5]];portConstraint=eastwest;fontStyle=4" parent="pnGU21rXxWi9947GBNGK-253" vertex="1">
          <mxGeometry y="136.33140772271207" width="142.76923076923077" height="23.67" as="geometry" />
        </mxCell>
        <mxCell id="pnGU21rXxWi9947GBNGK-259" value="ITrainingCampRepository" style="swimlane;fontStyle=1;align=center;verticalAlign=top;childLayout=stackLayout;horizontal=1;startSize=26;horizontalStack=0;resizeParent=1;resizeLast=0;collapsible=1;marginBottom=0;rounded=0;shadow=0;strokeWidth=1;" parent="1" vertex="1">
          <mxGeometry x="773.15" y="441.59" width="149.08" height="160.00140772271203" as="geometry">
            <mxRectangle x="130" y="380" width="160" height="26" as="alternateBounds" />
          </mxGeometry>
        </mxCell>
        <mxCell id="pnGU21rXxWi9947GBNGK-260" value="" style="line;html=1;strokeWidth=1;align=left;verticalAlign=middle;spacingTop=-1;spacingLeft=3;spacingRight=3;rotatable=0;labelPosition=right;points=[];portConstraint=eastwest;" parent="pnGU21rXxWi9947GBNGK-259" vertex="1">
          <mxGeometry y="26" width="149.08" height="7.880814837336575" as="geometry" />
        </mxCell>
        <mxCell id="pnGU21rXxWi9947GBNGK-261" value="+ Update()" style="text;align=left;verticalAlign=top;spacingLeft=4;spacingRight=4;overflow=hidden;rotatable=0;points=[[0,0.5],[1,0.5]];portConstraint=eastwest;fontStyle=4" parent="pnGU21rXxWi9947GBNGK-259" vertex="1">
          <mxGeometry y="33.88081483733657" width="149.08" height="25.612648221343868" as="geometry" />
        </mxCell>
        <mxCell id="pnGU21rXxWi9947GBNGK-262" value="+ Create()" style="text;align=left;verticalAlign=top;spacingLeft=4;spacingRight=4;overflow=hidden;rotatable=0;points=[[0,0.5],[1,0.5]];portConstraint=eastwest;fontStyle=4" parent="pnGU21rXxWi9947GBNGK-259" vertex="1">
          <mxGeometry y="59.49346305868044" width="149.08" height="25.612648221343868" as="geometry" />
        </mxCell>
        <mxCell id="pnGU21rXxWi9947GBNGK-263" value="+ ListTCamps()" style="text;align=left;verticalAlign=top;spacingLeft=4;spacingRight=4;overflow=hidden;rotatable=0;points=[[0,0.5],[1,0.5]];portConstraint=eastwest;fontStyle=4" parent="pnGU21rXxWi9947GBNGK-259" vertex="1">
          <mxGeometry y="85.10611128002431" width="149.08" height="25.612648221343868" as="geometry" />
        </mxCell>
        <mxCell id="pnGU21rXxWi9947GBNGK-264" value="+ GetTCampByID()" style="text;align=left;verticalAlign=top;spacingLeft=4;spacingRight=4;overflow=hidden;rotatable=0;points=[[0,0.5],[1,0.5]];portConstraint=eastwest;fontStyle=4" parent="pnGU21rXxWi9947GBNGK-259" vertex="1">
          <mxGeometry y="110.71875950136817" width="149.08" height="25.612648221343868" as="geometry" />
        </mxCell>
        <mxCell id="i6aTKDcYkG1T6r6kzWJ1-21" value="+ RegisterSportsman()" style="text;align=left;verticalAlign=top;spacingLeft=4;spacingRight=4;overflow=hidden;rotatable=0;points=[[0,0.5],[1,0.5]];portConstraint=eastwest;fontStyle=4" parent="pnGU21rXxWi9947GBNGK-259" vertex="1">
          <mxGeometry y="136.33140772271204" width="149.08" height="23.67" as="geometry" />
        </mxCell>
      </root>
    </mxGraphModel>
  </diagram>
</mxfile>
